<svg xmlns="http://www.w3.org/2000/svg" viewBox="0 0 720 694" width="720" height="694">
<rect width="720" height="694" fill="white" rx="6"/>
<rect x="20" y="20" width="11" height="11" rx="2" fill="#5B7FC7"/>
<text x="35" y="31" font-size="11.5" fill="#57606a" font-family="-apple-system,BlinkMacSystemFont,'Segoe UI',Helvetica,Arial,sans-serif">Lezer (parse only)</text>
<rect x="168" y="20" width="11" height="11" rx="2" fill="#8FA8D9"/>
<text x="183" y="31" font-size="11.5" fill="#57606a" font-family="-apple-system,BlinkMacSystemFont,'Segoe UI',Helvetica,Arial,sans-serif">Lezer (parse + walk)</text>
<rect x="330" y="20" width="11" height="11" rx="2" fill="#534AB7"/>
<text x="345" y="31" font-size="11.5" fill="#57606a" font-family="-apple-system,BlinkMacSystemFont,'Segoe UI',Helvetica,Arial,sans-serif">Parséman CST (macro build)</text>
<rect x="20" y="40" width="11" height="11" rx="2" fill="#C4BAFF"/>
<text x="35" y="51" font-size="11.5" fill="#57606a" font-family="-apple-system,BlinkMacSystemFont,'Segoe UI',Helvetica,Arial,sans-serif">Parséman CST (interpreter)</text>
<rect x="224" y="40" width="11" height="11" rx="2" fill="#BA7517"/>
<text x="239" y="51" font-size="11.5" fill="#57606a" font-family="-apple-system,BlinkMacSystemFont,'Segoe UI',Helvetica,Arial,sans-serif">Chevrotain CST</text>
<text x="700" y="31" font-size="10.5" fill="#8c959f" text-anchor="end" font-family="-apple-system,BlinkMacSystemFont,'Segoe UI',Helvetica,Arial,sans-serif">µs — shorter is faster</text>
<text x="20" y="86" font-size="10.5" font-weight="600" fill="#8c959f" letter-spacing="0.06em" font-family="-apple-system,BlinkMacSystemFont,'Segoe UI',Helvetica,Arial,sans-serif">JSON CST — SYNTAX TREE BUILDING</text>
<text x="20" y="101" font-size="12.5" fill="#57606a" font-family="-apple-system,BlinkMacSystemFont,'Segoe UI',Helvetica,Arial,sans-serif">initialization (macro build: zero runtime cost; others: no setup)</text>
<line x1="20" y1="129" x2="700" y2="129" stroke="#eaeef2" stroke-width="1"/>
<text x="20" y="145" font-size="12.5" fill="#57606a" font-family="-apple-system,BlinkMacSystemFont,'Segoe UI',Helvetica,Arial,sans-serif">warm parse — small  (52 bytes)</text>
<text x="230" y="180" text-anchor="end" font-size="12" fill="#24292f" font-family="-apple-system,BlinkMacSystemFont,'Segoe UI',Helvetica,Arial,sans-serif">Parséman CST (macro build)</text>
<rect x="238" y="165" width="386" height="18" rx="3" fill="#eaeef2"/>
<rect x="238" y="165" width="9.0" height="18" rx="3" fill="#534AB7"/>
<text x="252.04889726989174" y="180" font-size="11" fill="#57606a" font-family="-apple-system,BlinkMacSystemFont,'Segoe UI',Helvetica,Arial,sans-serif">0.99 µs</text>
<text x="230" y="208" text-anchor="end" font-size="12" fill="#24292f" font-family="-apple-system,BlinkMacSystemFont,'Segoe UI',Helvetica,Arial,sans-serif">Lezer (parse only)</text>
<rect x="238" y="193" width="386" height="18" rx="3" fill="#eaeef2"/>
<rect x="238" y="193" width="13.9" height="18" rx="3" fill="#5B7FC7"/>
<text x="256.9059014223236" y="208" font-size="11" fill="#57606a" font-family="-apple-system,BlinkMacSystemFont,'Segoe UI',Helvetica,Arial,sans-serif">2.34 µs</text>
<text x="230" y="236" text-anchor="end" font-size="12" fill="#24292f" font-family="-apple-system,BlinkMacSystemFont,'Segoe UI',Helvetica,Arial,sans-serif">Lezer (parse + walk)</text>
<rect x="238" y="221" width="386" height="18" rx="3" fill="#eaeef2"/>
<rect x="238" y="221" width="14.9" height="18" rx="3" fill="#8FA8D9"/>
<text x="257.8558224442647" y="236" font-size="11" fill="#57606a" font-family="-apple-system,BlinkMacSystemFont,'Segoe UI',Helvetica,Arial,sans-serif">2.67 µs</text>
<text x="230" y="264" text-anchor="end" font-size="12" fill="#24292f" font-family="-apple-system,BlinkMacSystemFont,'Segoe UI',Helvetica,Arial,sans-serif">Parséman CST (interpreter)</text>
<rect x="238" y="249" width="386" height="18" rx="3" fill="#eaeef2"/>
<rect x="238" y="249" width="15.6" height="18" rx="3" fill="#C4BAFF"/>
<text x="258.6457977427091" y="264" font-size="11" fill="#57606a" font-family="-apple-system,BlinkMacSystemFont,'Segoe UI',Helvetica,Arial,sans-serif">2.96 µs</text>
<text x="230" y="292" text-anchor="end" font-size="12" fill="#24292f" font-family="-apple-system,BlinkMacSystemFont,'Segoe UI',Helvetica,Arial,sans-serif">Chevrotain CST</text>
<rect x="238" y="277" width="386" height="18" rx="3" fill="#eaeef2"/>
<rect x="238" y="277" width="24.9" height="18" rx="3" fill="#BA7517"/>
<text x="267.8748883389966" y="292" font-size="11" fill="#57606a" font-family="-apple-system,BlinkMacSystemFont,'Segoe UI',Helvetica,Arial,sans-serif">7.49 µs</text>
<text x="20" y="321" font-size="12.5" fill="#57606a" font-family="-apple-system,BlinkMacSystemFont,'Segoe UI',Helvetica,Arial,sans-serif">warm parse — medium  (1.8 kB)</text>
<text x="230" y="356" text-anchor="end" font-size="12" fill="#24292f" font-family="-apple-system,BlinkMacSystemFont,'Segoe UI',Helvetica,Arial,sans-serif">Parséman CST (macro build)</text>
<rect x="238" y="341" width="386" height="18" rx="3" fill="#eaeef2"/>
<rect x="238" y="341" width="49.2" height="18" rx="3" fill="#534AB7"/>
<text x="292.22100738714846" y="356" font-size="11" fill="#57606a" font-family="-apple-system,BlinkMacSystemFont,'Segoe UI',Helvetica,Arial,sans-serif">29.3 µs</text>
<text x="230" y="384" text-anchor="end" font-size="12" fill="#24292f" font-family="-apple-system,BlinkMacSystemFont,'Segoe UI',Helvetica,Arial,sans-serif">Lezer (parse only)</text>
<rect x="238" y="369" width="386" height="18" rx="3" fill="#eaeef2"/>
<rect x="238" y="369" width="74.9" height="18" rx="3" fill="#5B7FC7"/>
<text x="317.8960189105309" y="384" font-size="11" fill="#57606a" font-family="-apple-system,BlinkMacSystemFont,'Segoe UI',Helvetica,Arial,sans-serif">67.9 µs</text>
<text x="230" y="412" text-anchor="end" font-size="12" fill="#24292f" font-family="-apple-system,BlinkMacSystemFont,'Segoe UI',Helvetica,Arial,sans-serif">Lezer (parse + walk)</text>
<rect x="238" y="397" width="386" height="18" rx="3" fill="#eaeef2"/>
<rect x="238" y="397" width="79.3" height="18" rx="3" fill="#8FA8D9"/>
<text x="322.34308484811027" y="412" font-size="11" fill="#57606a" font-family="-apple-system,BlinkMacSystemFont,'Segoe UI',Helvetica,Arial,sans-serif">76.2 µs</text>
<text x="230" y="440" text-anchor="end" font-size="12" fill="#24292f" font-family="-apple-system,BlinkMacSystemFont,'Segoe UI',Helvetica,Arial,sans-serif">Parséman CST (interpreter)</text>
<rect x="238" y="425" width="386" height="18" rx="3" fill="#eaeef2"/>
<rect x="238" y="425" width="94.0" height="18" rx="3" fill="#C4BAFF"/>
<text x="337.0454717765639" y="440" font-size="11" fill="#57606a" font-family="-apple-system,BlinkMacSystemFont,'Segoe UI',Helvetica,Arial,sans-serif">107 µs</text>
<text x="230" y="468" text-anchor="end" font-size="12" fill="#24292f" font-family="-apple-system,BlinkMacSystemFont,'Segoe UI',Helvetica,Arial,sans-serif">Chevrotain CST</text>
<rect x="238" y="453" width="386" height="18" rx="3" fill="#eaeef2"/>
<rect x="238" y="453" width="138.5" height="18" rx="3" fill="#BA7517"/>
<text x="381.52731485086133" y="468" font-size="11" fill="#57606a" font-family="-apple-system,BlinkMacSystemFont,'Segoe UI',Helvetica,Arial,sans-serif">232 µs</text>
<text x="20" y="497" font-size="12.5" fill="#57606a" font-family="-apple-system,BlinkMacSystemFont,'Segoe UI',Helvetica,Arial,sans-serif">warm parse — large  (11.9 kB)</text>
<text x="230" y="532" text-anchor="end" font-size="12" fill="#24292f" font-family="-apple-system,BlinkMacSystemFont,'Segoe UI',Helvetica,Arial,sans-serif">Parséman CST (macro build)</text>
<rect x="238" y="517" width="386" height="18" rx="3" fill="#eaeef2"/>
<rect x="238" y="517" width="140.9" height="18" rx="3" fill="#534AB7"/>
<text x="383.92905162886507" y="532" font-size="11" fill="#57606a" font-family="-apple-system,BlinkMacSystemFont,'Segoe UI',Helvetica,Arial,sans-serif">240 µs</text>
<text x="230" y="560" text-anchor="end" font-size="12" fill="#24292f" font-family="-apple-system,BlinkMacSystemFont,'Segoe UI',Helvetica,Arial,sans-serif">Lezer (parse only)</text>
<rect x="238" y="545" width="386" height="18" rx="3" fill="#eaeef2"/>
<rect x="238" y="545" width="215.0" height="18" rx="3" fill="#5B7FC7"/>
<text x="457.9910840658726" y="560" font-size="11" fill="#57606a" font-family="-apple-system,BlinkMacSystemFont,'Segoe UI',Helvetica,Arial,sans-serif">559 µs</text>
<text x="230" y="588" text-anchor="end" font-size="12" fill="#24292f" font-family="-apple-system,BlinkMacSystemFont,'Segoe UI',Helvetica,Arial,sans-serif">Lezer (parse + walk)</text>
<rect x="238" y="573" width="386" height="18" rx="3" fill="#eaeef2"/>
<rect x="238" y="573" width="231.1" height="18" rx="3" fill="#8FA8D9"/>
<text x="474.0857631521943" y="588" font-size="11" fill="#57606a" font-family="-apple-system,BlinkMacSystemFont,'Segoe UI',Helvetica,Arial,sans-serif">646 µs</text>
<text x="230" y="616" text-anchor="end" font-size="12" fill="#24292f" font-family="-apple-system,BlinkMacSystemFont,'Segoe UI',Helvetica,Arial,sans-serif">Parséman CST (interpreter)</text>
<rect x="238" y="601" width="386" height="18" rx="3" fill="#eaeef2"/>
<rect x="238" y="601" width="238.7" height="18" rx="3" fill="#C4BAFF"/>
<text x="481.6526548368081" y="616" font-size="11" fill="#57606a" font-family="-apple-system,BlinkMacSystemFont,'Segoe UI',Helvetica,Arial,sans-serif">689 µs</text>
<text x="230" y="644" text-anchor="end" font-size="12" fill="#24292f" font-family="-apple-system,BlinkMacSystemFont,'Segoe UI',Helvetica,Arial,sans-serif">Chevrotain CST</text>
<rect x="238" y="629" width="386" height="18" rx="3" fill="#eaeef2"/>
<rect x="238" y="629" width="386.0" height="18" rx="3" fill="#BA7517"/>
<text x="629" y="644" font-size="11" fill="#57606a" font-family="-apple-system,BlinkMacSystemFont,'Segoe UI',Helvetica,Arial,sans-serif">1.80 ms</text>
</svg>