<svg xmlns="http://www.w3.org/2000/svg" viewBox="0 0 700 648" width="700" height="648">
<rect width="700" height="648" fill="white" rx="6"/>
<rect x="20" y="20" width="11" height="11" rx="2" fill="#534AB7"/>
<text x="35" y="31" font-size="11.5" fill="#57606a" font-family="-apple-system,BlinkMacSystemFont,'Segoe UI',Helvetica,Arial,sans-serif">Parmésan (compiled)</text>
<rect x="167.5" y="20" width="11" height="11" rx="2" fill="#8B7FE8"/>
<text x="182.5" y="31" font-size="11.5" fill="#57606a" font-family="-apple-system,BlinkMacSystemFont,'Segoe UI',Helvetica,Arial,sans-serif">Parmésan (interpreter)</text>
<rect x="334.5" y="20" width="11" height="11" rx="2" fill="#1D9E75"/>
<text x="349.5" y="31" font-size="11.5" fill="#57606a" font-family="-apple-system,BlinkMacSystemFont,'Segoe UI',Helvetica,Arial,sans-serif">Peggy</text>
<rect x="20" y="40" width="11" height="11" rx="2" fill="#E24B4A"/>
<text x="35" y="51" font-size="11.5" fill="#57606a" font-family="-apple-system,BlinkMacSystemFont,'Segoe UI',Helvetica,Arial,sans-serif">Parsimmon</text>
<rect x="102.5" y="40" width="11" height="11" rx="2" fill="#BA7517"/>
<text x="117.5" y="51" font-size="11.5" fill="#57606a" font-family="-apple-system,BlinkMacSystemFont,'Segoe UI',Helvetica,Arial,sans-serif">Chevrotain</text>
<text x="680" y="31" font-size="10.5" fill="#8c959f" text-anchor="end" font-family="-apple-system,BlinkMacSystemFont,'Segoe UI',Helvetica,Arial,sans-serif">µs / parse — shorter is faster</text>
<text x="20" y="86" font-size="10.5" font-weight="600" fill="#8c959f" letter-spacing="0.06em" font-family="-apple-system,BlinkMacSystemFont,'Segoe UI',Helvetica,Arial,sans-serif">JSON PARSING</text>
<text x="20" y="111" font-size="12.5" fill="#57606a" font-family="-apple-system,BlinkMacSystemFont,'Segoe UI',Helvetica,Arial,sans-serif">small  (52 bytes)</text>
<text x="200" y="138" text-anchor="end" font-size="12" fill="#24292f" font-family="-apple-system,BlinkMacSystemFont,'Segoe UI',Helvetica,Arial,sans-serif">Parmésan (compiled)</text>
<rect x="208" y="125" width="396" height="18" rx="3" fill="#eaeef2"/>
<rect x="208" y="125" width="109.4" height="18" rx="3" fill="#534AB7"/>
<text x="324.3922651933702" y="138" font-size="11" fill="#57606a" font-family="-apple-system,BlinkMacSystemFont,'Segoe UI',Helvetica,Arial,sans-serif">2.00 µs</text>
<text x="200" y="166" text-anchor="end" font-size="12" fill="#24292f" font-family="-apple-system,BlinkMacSystemFont,'Segoe UI',Helvetica,Arial,sans-serif">Peggy</text>
<rect x="208" y="153" width="396" height="18" rx="3" fill="#eaeef2"/>
<rect x="208" y="153" width="138.9" height="18" rx="3" fill="#1D9E75"/>
<text x="353.9281767955801" y="166" font-size="11" fill="#57606a" font-family="-apple-system,BlinkMacSystemFont,'Segoe UI',Helvetica,Arial,sans-serif">2.54 µs</text>
<text x="200" y="194" text-anchor="end" font-size="12" fill="#24292f" font-family="-apple-system,BlinkMacSystemFont,'Segoe UI',Helvetica,Arial,sans-serif">Parmésan (interpreter)</text>
<rect x="208" y="181" width="396" height="18" rx="3" fill="#eaeef2"/>
<rect x="208" y="181" width="201.8" height="18" rx="3" fill="#8B7FE8"/>
<text x="416.82872928176795" y="194" font-size="11" fill="#57606a" font-family="-apple-system,BlinkMacSystemFont,'Segoe UI',Helvetica,Arial,sans-serif">3.69 µs</text>
<text x="200" y="222" text-anchor="end" font-size="12" fill="#24292f" font-family="-apple-system,BlinkMacSystemFont,'Segoe UI',Helvetica,Arial,sans-serif">Parsimmon</text>
<rect x="208" y="209" width="396" height="18" rx="3" fill="#eaeef2"/>
<rect x="208" y="209" width="327.1" height="18" rx="3" fill="#E24B4A"/>
<text x="542.0828729281768" y="222" font-size="11" fill="#57606a" font-family="-apple-system,BlinkMacSystemFont,'Segoe UI',Helvetica,Arial,sans-serif">5.98 µs</text>
<text x="200" y="250" text-anchor="end" font-size="12" fill="#24292f" font-family="-apple-system,BlinkMacSystemFont,'Segoe UI',Helvetica,Arial,sans-serif">Chevrotain</text>
<rect x="208" y="237" width="396" height="18" rx="3" fill="#eaeef2"/>
<rect x="208" y="237" width="396.0" height="18" rx="3" fill="#BA7517"/>
<text x="611" y="250" font-size="11" fill="#57606a" font-family="-apple-system,BlinkMacSystemFont,'Segoe UI',Helvetica,Arial,sans-serif">7.24 µs</text>
<text x="20" y="291" font-size="12.5" fill="#57606a" font-family="-apple-system,BlinkMacSystemFont,'Segoe UI',Helvetica,Arial,sans-serif">medium  (1.8 kB)</text>
<text x="200" y="318" text-anchor="end" font-size="12" fill="#24292f" font-family="-apple-system,BlinkMacSystemFont,'Segoe UI',Helvetica,Arial,sans-serif">Parmésan (compiled)</text>
<rect x="208" y="305" width="396" height="18" rx="3" fill="#eaeef2"/>
<rect x="208" y="305" width="100.8" height="18" rx="3" fill="#534AB7"/>
<text x="315.80728456428983" y="318" font-size="11" fill="#57606a" font-family="-apple-system,BlinkMacSystemFont,'Segoe UI',Helvetica,Arial,sans-serif">57.9 µs</text>
<text x="200" y="346" text-anchor="end" font-size="12" fill="#24292f" font-family="-apple-system,BlinkMacSystemFont,'Segoe UI',Helvetica,Arial,sans-serif">Peggy</text>
<rect x="208" y="333" width="396" height="18" rx="3" fill="#eaeef2"/>
<rect x="208" y="333" width="112.9" height="18" rx="3" fill="#1D9E75"/>
<text x="327.9487529142656" y="346" font-size="11" fill="#57606a" font-family="-apple-system,BlinkMacSystemFont,'Segoe UI',Helvetica,Arial,sans-serif">64.8 µs</text>
<text x="200" y="374" text-anchor="end" font-size="12" fill="#24292f" font-family="-apple-system,BlinkMacSystemFont,'Segoe UI',Helvetica,Arial,sans-serif">Parmésan (interpreter)</text>
<rect x="208" y="361" width="396" height="18" rx="3" fill="#eaeef2"/>
<rect x="208" y="361" width="192.4" height="18" rx="3" fill="#8B7FE8"/>
<text x="407.3647560814675" y="374" font-size="11" fill="#57606a" font-family="-apple-system,BlinkMacSystemFont,'Segoe UI',Helvetica,Arial,sans-serif">110 µs</text>
<text x="200" y="402" text-anchor="end" font-size="12" fill="#24292f" font-family="-apple-system,BlinkMacSystemFont,'Segoe UI',Helvetica,Arial,sans-serif">Parsimmon</text>
<rect x="208" y="389" width="396" height="18" rx="3" fill="#eaeef2"/>
<rect x="208" y="389" width="326.3" height="18" rx="3" fill="#E24B4A"/>
<text x="541.3215589671403" y="402" font-size="11" fill="#57606a" font-family="-apple-system,BlinkMacSystemFont,'Segoe UI',Helvetica,Arial,sans-serif">187 µs</text>
<text x="200" y="430" text-anchor="end" font-size="12" fill="#24292f" font-family="-apple-system,BlinkMacSystemFont,'Segoe UI',Helvetica,Arial,sans-serif">Chevrotain</text>
<rect x="208" y="417" width="396" height="18" rx="3" fill="#eaeef2"/>
<rect x="208" y="417" width="396.0" height="18" rx="3" fill="#BA7517"/>
<text x="611" y="430" font-size="11" fill="#57606a" font-family="-apple-system,BlinkMacSystemFont,'Segoe UI',Helvetica,Arial,sans-serif">227 µs</text>
<text x="20" y="471" font-size="12.5" fill="#57606a" font-family="-apple-system,BlinkMacSystemFont,'Segoe UI',Helvetica,Arial,sans-serif">large  (12 kB)</text>
<text x="200" y="498" text-anchor="end" font-size="12" fill="#24292f" font-family="-apple-system,BlinkMacSystemFont,'Segoe UI',Helvetica,Arial,sans-serif">Peggy</text>
<rect x="208" y="485" width="396" height="18" rx="3" fill="#eaeef2"/>
<rect x="208" y="485" width="104.0" height="18" rx="3" fill="#1D9E75"/>
<text x="318.98727354479587" y="498" font-size="11" fill="#57606a" font-family="-apple-system,BlinkMacSystemFont,'Segoe UI',Helvetica,Arial,sans-serif">461 µs</text>
<text x="200" y="526" text-anchor="end" font-size="12" fill="#24292f" font-family="-apple-system,BlinkMacSystemFont,'Segoe UI',Helvetica,Arial,sans-serif">Parmésan (compiled)</text>
<rect x="208" y="513" width="396" height="18" rx="3" fill="#eaeef2"/>
<rect x="208" y="513" width="115.7" height="18" rx="3" fill="#534AB7"/>
<text x="330.70068925479666" y="526" font-size="11" fill="#57606a" font-family="-apple-system,BlinkMacSystemFont,'Segoe UI',Helvetica,Arial,sans-serif">513 µs</text>
<text x="200" y="554" text-anchor="end" font-size="12" fill="#24292f" font-family="-apple-system,BlinkMacSystemFont,'Segoe UI',Helvetica,Arial,sans-serif">Parmésan (interpreter)</text>
<rect x="208" y="541" width="396" height="18" rx="3" fill="#eaeef2"/>
<rect x="208" y="541" width="224.4" height="18" rx="3" fill="#8B7FE8"/>
<text x="439.4075880635412" y="554" font-size="11" fill="#57606a" font-family="-apple-system,BlinkMacSystemFont,'Segoe UI',Helvetica,Arial,sans-serif">996 µs</text>
<text x="200" y="582" text-anchor="end" font-size="12" fill="#24292f" font-family="-apple-system,BlinkMacSystemFont,'Segoe UI',Helvetica,Arial,sans-serif">Parsimmon</text>
<rect x="208" y="569" width="396" height="18" rx="3" fill="#eaeef2"/>
<rect x="208" y="569" width="326.8" height="18" rx="3" fill="#E24B4A"/>
<text x="541.7698139410462" y="582" font-size="11" fill="#57606a" font-family="-apple-system,BlinkMacSystemFont,'Segoe UI',Helvetica,Arial,sans-serif">1.45 ms</text>
<text x="200" y="610" text-anchor="end" font-size="12" fill="#24292f" font-family="-apple-system,BlinkMacSystemFont,'Segoe UI',Helvetica,Arial,sans-serif">Chevrotain</text>
<rect x="208" y="597" width="396" height="18" rx="3" fill="#eaeef2"/>
<rect x="208" y="597" width="396.0" height="18" rx="3" fill="#BA7517"/>
<text x="611" y="610" font-size="11" fill="#57606a" font-family="-apple-system,BlinkMacSystemFont,'Segoe UI',Helvetica,Arial,sans-serif">1.76 ms</text>
</svg>