<svg xmlns="http://www.w3.org/2000/svg" viewBox="0 0 700 412" width="700" height="412">
<rect width="700" height="412" fill="white" rx="6"/>
<rect x="20" y="20" width="11" height="11" rx="2" fill="#534AB7"/>
<text x="35" y="31" font-size="11.5" fill="#57606a" font-family="-apple-system,BlinkMacSystemFont,'Segoe UI',Helvetica,Arial,sans-serif">Parmésan (compiled)</text>
<rect x="167.5" y="20" width="11" height="11" rx="2" fill="#8B7FE8"/>
<text x="182.5" y="31" font-size="11.5" fill="#57606a" font-family="-apple-system,BlinkMacSystemFont,'Segoe UI',Helvetica,Arial,sans-serif">Parmésan (interpreter)</text>
<rect x="334.5" y="20" width="11" height="11" rx="2" fill="#1D9E75"/>
<text x="349.5" y="31" font-size="11.5" fill="#57606a" font-family="-apple-system,BlinkMacSystemFont,'Segoe UI',Helvetica,Arial,sans-serif">Peggy</text>
<rect x="20" y="40" width="11" height="11" rx="2" fill="#E24B4A"/>
<text x="35" y="51" font-size="11.5" fill="#57606a" font-family="-apple-system,BlinkMacSystemFont,'Segoe UI',Helvetica,Arial,sans-serif">Parsimmon</text>
<text x="680" y="31" font-size="10.5" fill="#8c959f" text-anchor="end" font-family="-apple-system,BlinkMacSystemFont,'Segoe UI',Helvetica,Arial,sans-serif">µs / parse — shorter is faster</text>
<text x="20" y="86" font-size="10.5" font-weight="600" fill="#8c959f" letter-spacing="0.06em" font-family="-apple-system,BlinkMacSystemFont,'Segoe UI',Helvetica,Arial,sans-serif">CSV PARSING</text>
<text x="20" y="111" font-size="12.5" fill="#57606a" font-family="-apple-system,BlinkMacSystemFont,'Segoe UI',Helvetica,Arial,sans-serif">small  (54 bytes)</text>
<text x="200" y="138" text-anchor="end" font-size="12" fill="#24292f" font-family="-apple-system,BlinkMacSystemFont,'Segoe UI',Helvetica,Arial,sans-serif">Parmésan (compiled)</text>
<rect x="208" y="125" width="396" height="18" rx="3" fill="#eaeef2"/>
<rect x="208" y="125" width="99.3" height="18" rx="3" fill="#534AB7"/>
<text x="314.28530259365994" y="138" font-size="11" fill="#57606a" font-family="-apple-system,BlinkMacSystemFont,'Segoe UI',Helvetica,Arial,sans-serif">0.87 µs</text>
<text x="200" y="166" text-anchor="end" font-size="12" fill="#24292f" font-family="-apple-system,BlinkMacSystemFont,'Segoe UI',Helvetica,Arial,sans-serif">Parmésan (interpreter)</text>
<rect x="208" y="153" width="396" height="18" rx="3" fill="#eaeef2"/>
<rect x="208" y="153" width="220.3" height="18" rx="3" fill="#8B7FE8"/>
<text x="435.2536023054755" y="166" font-size="11" fill="#57606a" font-family="-apple-system,BlinkMacSystemFont,'Segoe UI',Helvetica,Arial,sans-serif">1.93 µs</text>
<text x="200" y="194" text-anchor="end" font-size="12" fill="#24292f" font-family="-apple-system,BlinkMacSystemFont,'Segoe UI',Helvetica,Arial,sans-serif">Peggy</text>
<rect x="208" y="181" width="396" height="18" rx="3" fill="#eaeef2"/>
<rect x="208" y="181" width="223.7" height="18" rx="3" fill="#1D9E75"/>
<text x="438.6772334293948" y="194" font-size="11" fill="#57606a" font-family="-apple-system,BlinkMacSystemFont,'Segoe UI',Helvetica,Arial,sans-serif">1.96 µs</text>
<text x="200" y="222" text-anchor="end" font-size="12" fill="#24292f" font-family="-apple-system,BlinkMacSystemFont,'Segoe UI',Helvetica,Arial,sans-serif">Parsimmon</text>
<rect x="208" y="209" width="396" height="18" rx="3" fill="#eaeef2"/>
<rect x="208" y="209" width="396.0" height="18" rx="3" fill="#E24B4A"/>
<text x="611" y="222" font-size="11" fill="#57606a" font-family="-apple-system,BlinkMacSystemFont,'Segoe UI',Helvetica,Arial,sans-serif">3.47 µs</text>
<text x="20" y="263" font-size="12.5" fill="#57606a" font-family="-apple-system,BlinkMacSystemFont,'Segoe UI',Helvetica,Arial,sans-serif">large  (14.8 kB)</text>
<text x="200" y="290" text-anchor="end" font-size="12" fill="#24292f" font-family="-apple-system,BlinkMacSystemFont,'Segoe UI',Helvetica,Arial,sans-serif">Parmésan (compiled)</text>
<rect x="208" y="277" width="396" height="18" rx="3" fill="#eaeef2"/>
<rect x="208" y="277" width="139.4" height="18" rx="3" fill="#534AB7"/>
<text x="354.36769570011023" y="290" font-size="11" fill="#57606a" font-family="-apple-system,BlinkMacSystemFont,'Segoe UI',Helvetica,Arial,sans-serif">153 µs</text>
<text x="200" y="318" text-anchor="end" font-size="12" fill="#24292f" font-family="-apple-system,BlinkMacSystemFont,'Segoe UI',Helvetica,Arial,sans-serif">Parmésan (interpreter)</text>
<rect x="208" y="305" width="396" height="18" rx="3" fill="#eaeef2"/>
<rect x="208" y="305" width="306.0" height="18" rx="3" fill="#8B7FE8"/>
<text x="521.0322491730981" y="318" font-size="11" fill="#57606a" font-family="-apple-system,BlinkMacSystemFont,'Segoe UI',Helvetica,Arial,sans-serif">336 µs</text>
<text x="200" y="346" text-anchor="end" font-size="12" fill="#24292f" font-family="-apple-system,BlinkMacSystemFont,'Segoe UI',Helvetica,Arial,sans-serif">Peggy</text>
<rect x="208" y="333" width="396" height="18" rx="3" fill="#eaeef2"/>
<rect x="208" y="333" width="387.1" height="18" rx="3" fill="#1D9E75"/>
<text x="602.0587100330761" y="346" font-size="11" fill="#57606a" font-family="-apple-system,BlinkMacSystemFont,'Segoe UI',Helvetica,Arial,sans-serif">426 µs</text>
<text x="200" y="374" text-anchor="end" font-size="12" fill="#24292f" font-family="-apple-system,BlinkMacSystemFont,'Segoe UI',Helvetica,Arial,sans-serif">Parsimmon</text>
<rect x="208" y="361" width="396" height="18" rx="3" fill="#eaeef2"/>
<rect x="208" y="361" width="396.0" height="18" rx="3" fill="#E24B4A"/>
<text x="611" y="374" font-size="11" fill="#57606a" font-family="-apple-system,BlinkMacSystemFont,'Segoe UI',Helvetica,Arial,sans-serif">435 µs</text>
</svg>