<svg xmlns="http://www.w3.org/2000/svg" viewBox="0 0 720 1002" width="720" height="1002">
<rect width="720" height="1002" fill="white" rx="6"/>
<rect x="20" y="20" width="11" height="11" rx="2" fill="#534AB7"/>
<text x="35" y="31" font-size="11.5" fill="#57606a" font-family="-apple-system,BlinkMacSystemFont,'Segoe UI',Helvetica,Arial,sans-serif">Parséman (macro build)</text>
<rect x="196" y="20" width="11" height="11" rx="2" fill="#9B8FEF"/>
<text x="211" y="31" font-size="11.5" fill="#57606a" font-family="-apple-system,BlinkMacSystemFont,'Segoe UI',Helvetica,Arial,sans-serif">Parséman (.compile())</text>
<rect x="365" y="20" width="11" height="11" rx="2" fill="#C4BAFF"/>
<text x="380" y="31" font-size="11.5" fill="#57606a" font-family="-apple-system,BlinkMacSystemFont,'Segoe UI',Helvetica,Arial,sans-serif">Parséman (interpreter)</text>
<rect x="20" y="40" width="11" height="11" rx="2" fill="#1D9E75"/>
<text x="35" y="51" font-size="11.5" fill="#57606a" font-family="-apple-system,BlinkMacSystemFont,'Segoe UI',Helvetica,Arial,sans-serif">Peggy</text>
<rect x="77" y="40" width="11" height="11" rx="2" fill="#E24B4A"/>
<text x="92" y="51" font-size="11.5" fill="#57606a" font-family="-apple-system,BlinkMacSystemFont,'Segoe UI',Helvetica,Arial,sans-serif">Parsimmon</text>
<rect x="162" y="40" width="11" height="11" rx="2" fill="#BA7517"/>
<text x="177" y="51" font-size="11.5" fill="#57606a" font-family="-apple-system,BlinkMacSystemFont,'Segoe UI',Helvetica,Arial,sans-serif">Chevrotain</text>
<rect x="254" y="40" width="11" height="11" rx="2" fill="#3788C2"/>
<text x="269" y="51" font-size="11.5" fill="#57606a" font-family="-apple-system,BlinkMacSystemFont,'Segoe UI',Helvetica,Arial,sans-serif">Nearley</text>
<rect x="325" y="40" width="11" height="11" rx="2" fill="#7C5CFC"/>
<text x="340" y="51" font-size="11.5" fill="#57606a" font-family="-apple-system,BlinkMacSystemFont,'Segoe UI',Helvetica,Arial,sans-serif">Jison</text>
<rect x="382" y="40" width="11" height="11" rx="2" fill="#2E8B57"/>
<text x="397" y="51" font-size="11.5" fill="#57606a" font-family="-apple-system,BlinkMacSystemFont,'Segoe UI',Helvetica,Arial,sans-serif">JSON.parse (native)</text>
<text x="700" y="31" font-size="10.5" fill="#8c959f" text-anchor="end" font-family="-apple-system,BlinkMacSystemFont,'Segoe UI',Helvetica,Arial,sans-serif">µs — shorter is faster</text>
<text x="20" y="86" font-size="10.5" font-weight="600" fill="#8c959f" letter-spacing="0.06em" font-family="-apple-system,BlinkMacSystemFont,'Segoe UI',Helvetica,Arial,sans-serif">JSON PARSING</text>
<text x="20" y="101" font-size="12.5" fill="#57606a" font-family="-apple-system,BlinkMacSystemFont,'Segoe UI',Helvetica,Arial,sans-serif">initialization (one-time; others: no setup cost)</text>
<text x="230" y="136" text-anchor="end" font-size="12" fill="#24292f" font-family="-apple-system,BlinkMacSystemFont,'Segoe UI',Helvetica,Arial,sans-serif">Parséman (.compile())</text>
<rect x="238" y="121" width="386" height="18" rx="3" fill="#f0f0f5"/>
<rect x="238" y="121" width="57.7" height="18" rx="3" fill="#9B8FEF"/>
<text x="300.69542466121027" y="136" font-size="11" fill="#57606a" font-family="-apple-system,BlinkMacSystemFont,'Segoe UI',Helvetica,Arial,sans-serif">111 µs</text>
<text x="230" y="164" text-anchor="end" font-size="12" fill="#24292f" font-family="-apple-system,BlinkMacSystemFont,'Segoe UI',Helvetica,Arial,sans-serif">Chevrotain</text>
<rect x="238" y="149" width="386" height="18" rx="3" fill="#f0f0f5"/>
<rect x="238" y="149" width="386.0" height="18" rx="3" fill="#BA7517"/>
<text x="629" y="164" font-size="11" fill="#57606a" font-family="-apple-system,BlinkMacSystemFont,'Segoe UI',Helvetica,Arial,sans-serif">745 µs</text>
<line x1="20" y1="185" x2="700" y2="185" stroke="#eaeef2" stroke-width="1"/>
<text x="20" y="201" font-size="12.5" fill="#57606a" font-family="-apple-system,BlinkMacSystemFont,'Segoe UI',Helvetica,Arial,sans-serif">warm parse — small  (52 bytes)</text>
<text x="230" y="236" text-anchor="end" font-size="12" fill="#24292f" font-family="-apple-system,BlinkMacSystemFont,'Segoe UI',Helvetica,Arial,sans-serif">JSON.parse (native)</text>
<rect x="238" y="221" width="386" height="18" rx="3" fill="#eaeef2"/>
<rect x="238" y="221" width="3.1" height="18" rx="3" fill="#2E8B57"/>
<text x="246.1342715393743" y="236" font-size="11" fill="#57606a" font-family="-apple-system,BlinkMacSystemFont,'Segoe UI',Helvetica,Arial,sans-serif">0.17 µs</text>
<text x="230" y="264" text-anchor="end" font-size="12" fill="#24292f" font-family="-apple-system,BlinkMacSystemFont,'Segoe UI',Helvetica,Arial,sans-serif">Parséman (macro build)</text>
<rect x="238" y="249" width="386" height="18" rx="3" fill="#eaeef2"/>
<rect x="238" y="249" width="5.7" height="18" rx="3" fill="#534AB7"/>
<text x="248.73917656885453" y="264" font-size="11" fill="#57606a" font-family="-apple-system,BlinkMacSystemFont,'Segoe UI',Helvetica,Arial,sans-serif">0.57 µs</text>
<text x="230" y="292" text-anchor="end" font-size="12" fill="#24292f" font-family="-apple-system,BlinkMacSystemFont,'Segoe UI',Helvetica,Arial,sans-serif">Parséman (interpreter)</text>
<rect x="238" y="277" width="386" height="18" rx="3" fill="#eaeef2"/>
<rect x="238" y="277" width="10.0" height="18" rx="3" fill="#C4BAFF"/>
<text x="253.02736404973479" y="292" font-size="11" fill="#57606a" font-family="-apple-system,BlinkMacSystemFont,'Segoe UI',Helvetica,Arial,sans-serif">1.74 µs</text>
<text x="230" y="320" text-anchor="end" font-size="12" fill="#24292f" font-family="-apple-system,BlinkMacSystemFont,'Segoe UI',Helvetica,Arial,sans-serif">Peggy</text>
<rect x="238" y="305" width="386" height="18" rx="3" fill="#eaeef2"/>
<rect x="238" y="305" width="12.2" height="18" rx="3" fill="#1D9E75"/>
<text x="255.21017845727178" y="320" font-size="11" fill="#57606a" font-family="-apple-system,BlinkMacSystemFont,'Segoe UI',Helvetica,Arial,sans-serif">2.58 µs</text>
<text x="230" y="348" text-anchor="end" font-size="12" fill="#24292f" font-family="-apple-system,BlinkMacSystemFont,'Segoe UI',Helvetica,Arial,sans-serif">Parsimmon</text>
<rect x="238" y="333" width="386" height="18" rx="3" fill="#eaeef2"/>
<rect x="238" y="333" width="18.7" height="18" rx="3" fill="#E24B4A"/>
<text x="261.744072183241" y="348" font-size="11" fill="#57606a" font-family="-apple-system,BlinkMacSystemFont,'Segoe UI',Helvetica,Arial,sans-serif">6.08 µs</text>
<text x="230" y="376" text-anchor="end" font-size="12" fill="#24292f" font-family="-apple-system,BlinkMacSystemFont,'Segoe UI',Helvetica,Arial,sans-serif">Jison</text>
<rect x="238" y="361" width="386" height="18" rx="3" fill="#eaeef2"/>
<rect x="238" y="361" width="19.3" height="18" rx="3" fill="#7C5CFC"/>
<text x="262.27603227886283" y="376" font-size="11" fill="#57606a" font-family="-apple-system,BlinkMacSystemFont,'Segoe UI',Helvetica,Arial,sans-serif">6.43 µs</text>
<text x="230" y="404" text-anchor="end" font-size="12" fill="#24292f" font-family="-apple-system,BlinkMacSystemFont,'Segoe UI',Helvetica,Arial,sans-serif">Nearley</text>
<rect x="238" y="389" width="386" height="18" rx="3" fill="#eaeef2"/>
<rect x="238" y="389" width="20.1" height="18" rx="3" fill="#3788C2"/>
<text x="263.12663484898553" y="404" font-size="11" fill="#57606a" font-family="-apple-system,BlinkMacSystemFont,'Segoe UI',Helvetica,Arial,sans-serif">7.01 µs</text>
<text x="230" y="432" text-anchor="end" font-size="12" fill="#24292f" font-family="-apple-system,BlinkMacSystemFont,'Segoe UI',Helvetica,Arial,sans-serif">Chevrotain</text>
<rect x="238" y="417" width="386" height="18" rx="3" fill="#eaeef2"/>
<rect x="238" y="417" width="20.9" height="18" rx="3" fill="#BA7517"/>
<text x="263.9427180727106" y="432" font-size="11" fill="#57606a" font-family="-apple-system,BlinkMacSystemFont,'Segoe UI',Helvetica,Arial,sans-serif">7.59 µs</text>
<text x="20" y="461" font-size="12.5" fill="#57606a" font-family="-apple-system,BlinkMacSystemFont,'Segoe UI',Helvetica,Arial,sans-serif">warm parse — medium  (1.8 kB)</text>
<text x="230" y="496" text-anchor="end" font-size="12" fill="#24292f" font-family="-apple-system,BlinkMacSystemFont,'Segoe UI',Helvetica,Arial,sans-serif">JSON.parse (native)</text>
<rect x="238" y="481" width="386" height="18" rx="3" fill="#eaeef2"/>
<rect x="238" y="481" width="15.0" height="18" rx="3" fill="#2E8B57"/>
<text x="257.99294538834624" y="496" font-size="11" fill="#57606a" font-family="-apple-system,BlinkMacSystemFont,'Segoe UI',Helvetica,Arial,sans-serif">3.89 µs</text>
<text x="230" y="524" text-anchor="end" font-size="12" fill="#24292f" font-family="-apple-system,BlinkMacSystemFont,'Segoe UI',Helvetica,Arial,sans-serif">Parséman (macro build)</text>
<rect x="238" y="509" width="386" height="18" rx="3" fill="#eaeef2"/>
<rect x="238" y="509" width="29.7" height="18" rx="3" fill="#534AB7"/>
<text x="272.72459192634466" y="524" font-size="11" fill="#57606a" font-family="-apple-system,BlinkMacSystemFont,'Segoe UI',Helvetica,Arial,sans-serif">15.3 µs</text>
<text x="230" y="552" text-anchor="end" font-size="12" fill="#24292f" font-family="-apple-system,BlinkMacSystemFont,'Segoe UI',Helvetica,Arial,sans-serif">Parséman (interpreter)</text>
<rect x="238" y="537" width="386" height="18" rx="3" fill="#eaeef2"/>
<rect x="238" y="537" width="55.9" height="18" rx="3" fill="#C4BAFF"/>
<text x="298.9127420111526" y="552" font-size="11" fill="#57606a" font-family="-apple-system,BlinkMacSystemFont,'Segoe UI',Helvetica,Arial,sans-serif">54.1 µs</text>
<text x="230" y="580" text-anchor="end" font-size="12" fill="#24292f" font-family="-apple-system,BlinkMacSystemFont,'Segoe UI',Helvetica,Arial,sans-serif">Peggy</text>
<rect x="238" y="565" width="386" height="18" rx="3" fill="#eaeef2"/>
<rect x="238" y="565" width="62.3" height="18" rx="3" fill="#1D9E75"/>
<text x="305.2784983431651" y="580" font-size="11" fill="#57606a" font-family="-apple-system,BlinkMacSystemFont,'Segoe UI',Helvetica,Arial,sans-serif">67.1 µs</text>
<text x="230" y="608" text-anchor="end" font-size="12" fill="#24292f" font-family="-apple-system,BlinkMacSystemFont,'Segoe UI',Helvetica,Arial,sans-serif">Parsimmon</text>
<rect x="238" y="593" width="386" height="18" rx="3" fill="#eaeef2"/>
<rect x="238" y="593" width="104.2" height="18" rx="3" fill="#E24B4A"/>
<text x="347.21851402624816" y="608" font-size="11" fill="#57606a" font-family="-apple-system,BlinkMacSystemFont,'Segoe UI',Helvetica,Arial,sans-serif">188 µs</text>
<text x="230" y="636" text-anchor="end" font-size="12" fill="#24292f" font-family="-apple-system,BlinkMacSystemFont,'Segoe UI',Helvetica,Arial,sans-serif">Jison</text>
<rect x="238" y="621" width="386" height="18" rx="3" fill="#eaeef2"/>
<rect x="238" y="621" width="107.8" height="18" rx="3" fill="#7C5CFC"/>
<text x="350.83469691391963" y="636" font-size="11" fill="#57606a" font-family="-apple-system,BlinkMacSystemFont,'Segoe UI',Helvetica,Arial,sans-serif">201 µs</text>
<text x="230" y="664" text-anchor="end" font-size="12" fill="#24292f" font-family="-apple-system,BlinkMacSystemFont,'Segoe UI',Helvetica,Arial,sans-serif">Chevrotain</text>
<rect x="238" y="649" width="386" height="18" rx="3" fill="#eaeef2"/>
<rect x="238" y="649" width="119.1" height="18" rx="3" fill="#BA7517"/>
<text x="362.10231849622375" y="664" font-size="11" fill="#57606a" font-family="-apple-system,BlinkMacSystemFont,'Segoe UI',Helvetica,Arial,sans-serif">245 µs</text>
<text x="230" y="692" text-anchor="end" font-size="12" fill="#24292f" font-family="-apple-system,BlinkMacSystemFont,'Segoe UI',Helvetica,Arial,sans-serif">Nearley</text>
<rect x="238" y="677" width="386" height="18" rx="3" fill="#eaeef2"/>
<rect x="238" y="677" width="132.0" height="18" rx="3" fill="#3788C2"/>
<text x="374.9550871325829" y="692" font-size="11" fill="#57606a" font-family="-apple-system,BlinkMacSystemFont,'Segoe UI',Helvetica,Arial,sans-serif">301 µs</text>
<text x="20" y="721" font-size="12.5" fill="#57606a" font-family="-apple-system,BlinkMacSystemFont,'Segoe UI',Helvetica,Arial,sans-serif">warm parse — large  (12 kB)</text>
<text x="230" y="756" text-anchor="end" font-size="12" fill="#24292f" font-family="-apple-system,BlinkMacSystemFont,'Segoe UI',Helvetica,Arial,sans-serif">JSON.parse (native)</text>
<rect x="238" y="741" width="386" height="18" rx="3" fill="#eaeef2"/>
<rect x="238" y="741" width="50.9" height="18" rx="3" fill="#2E8B57"/>
<text x="293.8520749298046" y="756" font-size="11" fill="#57606a" font-family="-apple-system,BlinkMacSystemFont,'Segoe UI',Helvetica,Arial,sans-serif">44.8 µs</text>
<text x="230" y="784" text-anchor="end" font-size="12" fill="#24292f" font-family="-apple-system,BlinkMacSystemFont,'Segoe UI',Helvetica,Arial,sans-serif">Parséman (macro build)</text>
<rect x="238" y="769" width="386" height="18" rx="3" fill="#eaeef2"/>
<rect x="238" y="769" width="84.9" height="18" rx="3" fill="#534AB7"/>
<text x="327.9320572209286" y="784" font-size="11" fill="#57606a" font-family="-apple-system,BlinkMacSystemFont,'Segoe UI',Helvetica,Arial,sans-serif">125 µs</text>
<text x="230" y="812" text-anchor="end" font-size="12" fill="#24292f" font-family="-apple-system,BlinkMacSystemFont,'Segoe UI',Helvetica,Arial,sans-serif">Peggy</text>
<rect x="238" y="797" width="386" height="18" rx="3" fill="#eaeef2"/>
<rect x="238" y="797" width="165.1" height="18" rx="3" fill="#1D9E75"/>
<text x="408.07299577527147" y="812" font-size="11" fill="#57606a" font-family="-apple-system,BlinkMacSystemFont,'Segoe UI',Helvetica,Arial,sans-serif">472 µs</text>
<text x="230" y="840" text-anchor="end" font-size="12" fill="#24292f" font-family="-apple-system,BlinkMacSystemFont,'Segoe UI',Helvetica,Arial,sans-serif">Parséman (interpreter)</text>
<rect x="238" y="825" width="386" height="18" rx="3" fill="#eaeef2"/>
<rect x="238" y="825" width="165.2" height="18" rx="3" fill="#C4BAFF"/>
<text x="408.1727340753045" y="840" font-size="11" fill="#57606a" font-family="-apple-system,BlinkMacSystemFont,'Segoe UI',Helvetica,Arial,sans-serif">472 µs</text>
<text x="230" y="868" text-anchor="end" font-size="12" fill="#24292f" font-family="-apple-system,BlinkMacSystemFont,'Segoe UI',Helvetica,Arial,sans-serif">Parsimmon</text>
<rect x="238" y="853" width="386" height="18" rx="3" fill="#eaeef2"/>
<rect x="238" y="853" width="294.1" height="18" rx="3" fill="#E24B4A"/>
<text x="537.0551246019784" y="868" font-size="11" fill="#57606a" font-family="-apple-system,BlinkMacSystemFont,'Segoe UI',Helvetica,Arial,sans-serif">1.50 ms</text>
<text x="230" y="896" text-anchor="end" font-size="12" fill="#24292f" font-family="-apple-system,BlinkMacSystemFont,'Segoe UI',Helvetica,Arial,sans-serif">Jison</text>
<rect x="238" y="881" width="386" height="18" rx="3" fill="#eaeef2"/>
<rect x="238" y="881" width="307.9" height="18" rx="3" fill="#7C5CFC"/>
<text x="550.9383670216478" y="896" font-size="11" fill="#57606a" font-family="-apple-system,BlinkMacSystemFont,'Segoe UI',Helvetica,Arial,sans-serif">1.64 ms</text>
<text x="230" y="924" text-anchor="end" font-size="12" fill="#24292f" font-family="-apple-system,BlinkMacSystemFont,'Segoe UI',Helvetica,Arial,sans-serif">Chevrotain</text>
<rect x="238" y="909" width="386" height="18" rx="3" fill="#eaeef2"/>
<rect x="238" y="909" width="335.3" height="18" rx="3" fill="#BA7517"/>
<text x="578.3360379474018" y="924" font-size="11" fill="#57606a" font-family="-apple-system,BlinkMacSystemFont,'Segoe UI',Helvetica,Arial,sans-serif">1.95 ms</text>
<text x="230" y="952" text-anchor="end" font-size="12" fill="#24292f" font-family="-apple-system,BlinkMacSystemFont,'Segoe UI',Helvetica,Arial,sans-serif">Nearley</text>
<rect x="238" y="937" width="386" height="18" rx="3" fill="#eaeef2"/>
<rect x="238" y="937" width="386.0" height="18" rx="3" fill="#3788C2"/>
<text x="629" y="952" font-size="11" fill="#57606a" font-family="-apple-system,BlinkMacSystemFont,'Segoe UI',Helvetica,Arial,sans-serif">2.58 ms</text>
</svg>