<svg xmlns="http://www.w3.org/2000/svg" viewBox="0 0 720 918" width="720" height="918">
<rect width="720" height="918" fill="white" rx="6"/>
<rect x="20" y="20" width="11" height="11" rx="2" fill="#534AB7"/>
<text x="35" y="31" font-size="11.5" fill="#57606a" font-family="-apple-system,BlinkMacSystemFont,'Segoe UI',Helvetica,Arial,sans-serif">Parséman (macro build)</text>
<rect x="196" y="20" width="11" height="11" rx="2" fill="#9B8FEF"/>
<text x="211" y="31" font-size="11.5" fill="#57606a" font-family="-apple-system,BlinkMacSystemFont,'Segoe UI',Helvetica,Arial,sans-serif">Parséman (compile())</text>
<rect x="358" y="20" width="11" height="11" rx="2" fill="#C4BAFF"/>
<text x="373" y="31" font-size="11.5" fill="#57606a" font-family="-apple-system,BlinkMacSystemFont,'Segoe UI',Helvetica,Arial,sans-serif">Parséman (interpreter)</text>
<rect x="20" y="40" width="11" height="11" rx="2" fill="#1D9E75"/>
<text x="35" y="51" font-size="11.5" fill="#57606a" font-family="-apple-system,BlinkMacSystemFont,'Segoe UI',Helvetica,Arial,sans-serif">Peggy</text>
<rect x="77" y="40" width="11" height="11" rx="2" fill="#E24B4A"/>
<text x="92" y="51" font-size="11.5" fill="#57606a" font-family="-apple-system,BlinkMacSystemFont,'Segoe UI',Helvetica,Arial,sans-serif">Parsimmon</text>
<rect x="162" y="40" width="11" height="11" rx="2" fill="#BA7517"/>
<text x="177" y="51" font-size="11.5" fill="#57606a" font-family="-apple-system,BlinkMacSystemFont,'Segoe UI',Helvetica,Arial,sans-serif">Chevrotain</text>
<rect x="254" y="40" width="11" height="11" rx="2" fill="#3788C2"/>
<text x="269" y="51" font-size="11.5" fill="#57606a" font-family="-apple-system,BlinkMacSystemFont,'Segoe UI',Helvetica,Arial,sans-serif">Nearley</text>
<rect x="325" y="40" width="11" height="11" rx="2" fill="#7C5CFC"/>
<text x="340" y="51" font-size="11.5" fill="#57606a" font-family="-apple-system,BlinkMacSystemFont,'Segoe UI',Helvetica,Arial,sans-serif">Jison</text>
<text x="700" y="31" font-size="10.5" fill="#8c959f" text-anchor="end" font-family="-apple-system,BlinkMacSystemFont,'Segoe UI',Helvetica,Arial,sans-serif">µs — shorter is faster</text>
<text x="20" y="86" font-size="10.5" font-weight="600" fill="#8c959f" letter-spacing="0.06em" font-family="-apple-system,BlinkMacSystemFont,'Segoe UI',Helvetica,Arial,sans-serif">GRAPHQL PARSING</text>
<text x="20" y="101" font-size="12.5" fill="#57606a" font-family="-apple-system,BlinkMacSystemFont,'Segoe UI',Helvetica,Arial,sans-serif">initialization (one-time; others: no setup cost)</text>
<text x="230" y="136" text-anchor="end" font-size="12" fill="#24292f" font-family="-apple-system,BlinkMacSystemFont,'Segoe UI',Helvetica,Arial,sans-serif">Parséman (compile())</text>
<rect x="238" y="121" width="386" height="18" rx="3" fill="#f0f0f5"/>
<rect x="238" y="121" width="173.6" height="18" rx="3" fill="#9B8FEF"/>
<text x="416.6394984326019" y="136" font-size="11" fill="#57606a" font-family="-apple-system,BlinkMacSystemFont,'Segoe UI',Helvetica,Arial,sans-serif">603 µs</text>
<text x="230" y="164" text-anchor="end" font-size="12" fill="#24292f" font-family="-apple-system,BlinkMacSystemFont,'Segoe UI',Helvetica,Arial,sans-serif">Chevrotain</text>
<rect x="238" y="149" width="386" height="18" rx="3" fill="#f0f0f5"/>
<rect x="238" y="149" width="386.0" height="18" rx="3" fill="#BA7517"/>
<text x="629" y="164" font-size="11" fill="#57606a" font-family="-apple-system,BlinkMacSystemFont,'Segoe UI',Helvetica,Arial,sans-serif">1.34 ms</text>
<line x1="20" y1="185" x2="700" y2="185" stroke="#eaeef2" stroke-width="1"/>
<text x="20" y="201" font-size="12.5" fill="#57606a" font-family="-apple-system,BlinkMacSystemFont,'Segoe UI',Helvetica,Arial,sans-serif">warm parse — small  (27 bytes)</text>
<text x="230" y="236" text-anchor="end" font-size="12" fill="#24292f" font-family="-apple-system,BlinkMacSystemFont,'Segoe UI',Helvetica,Arial,sans-serif">Parséman (macro build)</text>
<rect x="238" y="221" width="386" height="18" rx="3" fill="#eaeef2"/>
<rect x="238" y="221" width="9.2" height="18" rx="3" fill="#534AB7"/>
<text x="252.19496303216286" y="236" font-size="11" fill="#57606a" font-family="-apple-system,BlinkMacSystemFont,'Segoe UI',Helvetica,Arial,sans-serif">0.89 µs</text>
<text x="230" y="264" text-anchor="end" font-size="12" fill="#24292f" font-family="-apple-system,BlinkMacSystemFont,'Segoe UI',Helvetica,Arial,sans-serif">Parséman (interpreter)</text>
<rect x="238" y="249" width="386" height="18" rx="3" fill="#eaeef2"/>
<rect x="238" y="249" width="14.5" height="18" rx="3" fill="#C4BAFF"/>
<text x="257.509782871077" y="264" font-size="11" fill="#57606a" font-family="-apple-system,BlinkMacSystemFont,'Segoe UI',Helvetica,Arial,sans-serif">2.21 µs</text>
<text x="230" y="292" text-anchor="end" font-size="12" fill="#24292f" font-family="-apple-system,BlinkMacSystemFont,'Segoe UI',Helvetica,Arial,sans-serif">Peggy</text>
<rect x="238" y="277" width="386" height="18" rx="3" fill="#eaeef2"/>
<rect x="238" y="277" width="15.1" height="18" rx="3" fill="#1D9E75"/>
<text x="258.1078516639297" y="292" font-size="11" fill="#57606a" font-family="-apple-system,BlinkMacSystemFont,'Segoe UI',Helvetica,Arial,sans-serif">2.39 µs</text>
<text x="230" y="320" text-anchor="end" font-size="12" fill="#24292f" font-family="-apple-system,BlinkMacSystemFont,'Segoe UI',Helvetica,Arial,sans-serif">Chevrotain</text>
<rect x="238" y="305" width="386" height="18" rx="3" fill="#eaeef2"/>
<rect x="238" y="305" width="19.0" height="18" rx="3" fill="#BA7517"/>
<text x="261.98816067041014" y="320" font-size="11" fill="#57606a" font-family="-apple-system,BlinkMacSystemFont,'Segoe UI',Helvetica,Arial,sans-serif">3.78 µs</text>
<text x="230" y="348" text-anchor="end" font-size="12" fill="#24292f" font-family="-apple-system,BlinkMacSystemFont,'Segoe UI',Helvetica,Arial,sans-serif">Nearley</text>
<rect x="238" y="333" width="386" height="18" rx="3" fill="#eaeef2"/>
<rect x="238" y="333" width="25.3" height="18" rx="3" fill="#3788C2"/>
<text x="268.2561420809151" y="348" font-size="11" fill="#57606a" font-family="-apple-system,BlinkMacSystemFont,'Segoe UI',Helvetica,Arial,sans-serif">6.69 µs</text>
<text x="230" y="376" text-anchor="end" font-size="12" fill="#24292f" font-family="-apple-system,BlinkMacSystemFont,'Segoe UI',Helvetica,Arial,sans-serif">Jison</text>
<rect x="238" y="361" width="386" height="18" rx="3" fill="#eaeef2"/>
<rect x="238" y="361" width="25.3" height="18" rx="3" fill="#7C5CFC"/>
<text x="268.31355174182863" y="376" font-size="11" fill="#57606a" font-family="-apple-system,BlinkMacSystemFont,'Segoe UI',Helvetica,Arial,sans-serif">6.72 µs</text>
<text x="230" y="404" text-anchor="end" font-size="12" fill="#24292f" font-family="-apple-system,BlinkMacSystemFont,'Segoe UI',Helvetica,Arial,sans-serif">Parsimmon</text>
<rect x="238" y="389" width="386" height="18" rx="3" fill="#eaeef2"/>
<rect x="238" y="389" width="32.6" height="18" rx="3" fill="#E24B4A"/>
<text x="275.5678482740999" y="404" font-size="11" fill="#57606a" font-family="-apple-system,BlinkMacSystemFont,'Segoe UI',Helvetica,Arial,sans-serif">11.1 µs</text>
<text x="20" y="433" font-size="12.5" fill="#57606a" font-family="-apple-system,BlinkMacSystemFont,'Segoe UI',Helvetica,Arial,sans-serif">warm parse — medium  (336 bytes)</text>
<text x="230" y="468" text-anchor="end" font-size="12" fill="#24292f" font-family="-apple-system,BlinkMacSystemFont,'Segoe UI',Helvetica,Arial,sans-serif">Parséman (macro build)</text>
<rect x="238" y="453" width="386" height="18" rx="3" fill="#eaeef2"/>
<rect x="238" y="453" width="23.3" height="18" rx="3" fill="#534AB7"/>
<text x="266.33478299496204" y="468" font-size="11" fill="#57606a" font-family="-apple-system,BlinkMacSystemFont,'Segoe UI',Helvetica,Arial,sans-serif">5.71 µs</text>
<text x="230" y="496" text-anchor="end" font-size="12" fill="#24292f" font-family="-apple-system,BlinkMacSystemFont,'Segoe UI',Helvetica,Arial,sans-serif">Parséman (interpreter)</text>
<rect x="238" y="481" width="386" height="18" rx="3" fill="#eaeef2"/>
<rect x="238" y="481" width="36.5" height="18" rx="3" fill="#C4BAFF"/>
<text x="279.5087231510272" y="496" font-size="11" fill="#57606a" font-family="-apple-system,BlinkMacSystemFont,'Segoe UI',Helvetica,Arial,sans-serif">14.0 µs</text>
<text x="230" y="524" text-anchor="end" font-size="12" fill="#24292f" font-family="-apple-system,BlinkMacSystemFont,'Segoe UI',Helvetica,Arial,sans-serif">Peggy</text>
<rect x="238" y="509" width="386" height="18" rx="3" fill="#eaeef2"/>
<rect x="238" y="509" width="39.2" height="18" rx="3" fill="#1D9E75"/>
<text x="282.1868375416689" y="524" font-size="11" fill="#57606a" font-family="-apple-system,BlinkMacSystemFont,'Segoe UI',Helvetica,Arial,sans-serif">16.1 µs</text>
<text x="230" y="552" text-anchor="end" font-size="12" fill="#24292f" font-family="-apple-system,BlinkMacSystemFont,'Segoe UI',Helvetica,Arial,sans-serif">Chevrotain</text>
<rect x="238" y="537" width="386" height="18" rx="3" fill="#eaeef2"/>
<rect x="238" y="537" width="47.3" height="18" rx="3" fill="#BA7517"/>
<text x="290.28107356939427" y="552" font-size="11" fill="#57606a" font-family="-apple-system,BlinkMacSystemFont,'Segoe UI',Helvetica,Arial,sans-serif">23.4 µs</text>
<text x="230" y="580" text-anchor="end" font-size="12" fill="#24292f" font-family="-apple-system,BlinkMacSystemFont,'Segoe UI',Helvetica,Arial,sans-serif">Nearley</text>
<rect x="238" y="565" width="386" height="18" rx="3" fill="#eaeef2"/>
<rect x="238" y="565" width="63.0" height="18" rx="3" fill="#3788C2"/>
<text x="305.9968604349791" y="580" font-size="11" fill="#57606a" font-family="-apple-system,BlinkMacSystemFont,'Segoe UI',Helvetica,Arial,sans-serif">41.6 µs</text>
<text x="230" y="608" text-anchor="end" font-size="12" fill="#24292f" font-family="-apple-system,BlinkMacSystemFont,'Segoe UI',Helvetica,Arial,sans-serif">Jison</text>
<rect x="238" y="593" width="386" height="18" rx="3" fill="#eaeef2"/>
<rect x="238" y="593" width="63.4" height="18" rx="3" fill="#7C5CFC"/>
<text x="306.3561720525521" y="608" font-size="11" fill="#57606a" font-family="-apple-system,BlinkMacSystemFont,'Segoe UI',Helvetica,Arial,sans-serif">42.1 µs</text>
<text x="230" y="636" text-anchor="end" font-size="12" fill="#24292f" font-family="-apple-system,BlinkMacSystemFont,'Segoe UI',Helvetica,Arial,sans-serif">Parsimmon</text>
<rect x="238" y="621" width="386" height="18" rx="3" fill="#eaeef2"/>
<rect x="238" y="621" width="73.4" height="18" rx="3" fill="#E24B4A"/>
<text x="316.35939020979697" y="636" font-size="11" fill="#57606a" font-family="-apple-system,BlinkMacSystemFont,'Segoe UI',Helvetica,Arial,sans-serif">56.4 µs</text>
<text x="20" y="665" font-size="12.5" fill="#57606a" font-family="-apple-system,BlinkMacSystemFont,'Segoe UI',Helvetica,Arial,sans-serif">warm parse — large  (7.7 kB)</text>
<text x="230" y="700" text-anchor="end" font-size="12" fill="#24292f" font-family="-apple-system,BlinkMacSystemFont,'Segoe UI',Helvetica,Arial,sans-serif">Parséman (macro build)</text>
<rect x="238" y="685" width="386" height="18" rx="3" fill="#eaeef2"/>
<rect x="238" y="685" width="111.9" height="18" rx="3" fill="#534AB7"/>
<text x="354.9031150477459" y="700" font-size="11" fill="#57606a" font-family="-apple-system,BlinkMacSystemFont,'Segoe UI',Helvetica,Arial,sans-serif">131 µs</text>
<text x="230" y="728" text-anchor="end" font-size="12" fill="#24292f" font-family="-apple-system,BlinkMacSystemFont,'Segoe UI',Helvetica,Arial,sans-serif">Parséman (interpreter)</text>
<rect x="238" y="713" width="386" height="18" rx="3" fill="#eaeef2"/>
<rect x="238" y="713" width="182.7" height="18" rx="3" fill="#C4BAFF"/>
<text x="425.7111333780259" y="728" font-size="11" fill="#57606a" font-family="-apple-system,BlinkMacSystemFont,'Segoe UI',Helvetica,Arial,sans-serif">350 µs</text>
<text x="230" y="756" text-anchor="end" font-size="12" fill="#24292f" font-family="-apple-system,BlinkMacSystemFont,'Segoe UI',Helvetica,Arial,sans-serif">Peggy</text>
<rect x="238" y="741" width="386" height="18" rx="3" fill="#eaeef2"/>
<rect x="238" y="741" width="188.5" height="18" rx="3" fill="#1D9E75"/>
<text x="431.52938017774557" y="756" font-size="11" fill="#57606a" font-family="-apple-system,BlinkMacSystemFont,'Segoe UI',Helvetica,Arial,sans-serif">373 µs</text>
<text x="230" y="784" text-anchor="end" font-size="12" fill="#24292f" font-family="-apple-system,BlinkMacSystemFont,'Segoe UI',Helvetica,Arial,sans-serif">Chevrotain</text>
<rect x="238" y="769" width="386" height="18" rx="3" fill="#eaeef2"/>
<rect x="238" y="769" width="252.9" height="18" rx="3" fill="#BA7517"/>
<text x="495.9208452767583" y="784" font-size="11" fill="#57606a" font-family="-apple-system,BlinkMacSystemFont,'Segoe UI',Helvetica,Arial,sans-serif">671 µs</text>
<text x="230" y="812" text-anchor="end" font-size="12" fill="#24292f" font-family="-apple-system,BlinkMacSystemFont,'Segoe UI',Helvetica,Arial,sans-serif">Jison</text>
<rect x="238" y="797" width="386" height="18" rx="3" fill="#eaeef2"/>
<rect x="238" y="797" width="351.9" height="18" rx="3" fill="#7C5CFC"/>
<text x="594.8737389773848" y="812" font-size="11" fill="#57606a" font-family="-apple-system,BlinkMacSystemFont,'Segoe UI',Helvetica,Arial,sans-serif">1.30 ms</text>
<text x="230" y="840" text-anchor="end" font-size="12" fill="#24292f" font-family="-apple-system,BlinkMacSystemFont,'Segoe UI',Helvetica,Arial,sans-serif">Nearley</text>
<rect x="238" y="825" width="386" height="18" rx="3" fill="#eaeef2"/>
<rect x="238" y="825" width="368.0" height="18" rx="3" fill="#3788C2"/>
<text x="611.0243318440323" y="840" font-size="11" fill="#57606a" font-family="-apple-system,BlinkMacSystemFont,'Segoe UI',Helvetica,Arial,sans-serif">1.42 ms</text>
<text x="230" y="868" text-anchor="end" font-size="12" fill="#24292f" font-family="-apple-system,BlinkMacSystemFont,'Segoe UI',Helvetica,Arial,sans-serif">Parsimmon</text>
<rect x="238" y="853" width="386" height="18" rx="3" fill="#eaeef2"/>
<rect x="238" y="853" width="386.0" height="18" rx="3" fill="#E24B4A"/>
<text x="629" y="868" font-size="11" fill="#57606a" font-family="-apple-system,BlinkMacSystemFont,'Segoe UI',Helvetica,Arial,sans-serif">1.56 ms</text>
</svg>