<svg xmlns="http://www.w3.org/2000/svg" viewBox="0 0 720 1002" width="720" height="1002">
<rect width="720" height="1002" fill="white" rx="6"/>
<rect x="20" y="20" width="11" height="11" rx="2" fill="#534AB7"/>
<text x="35" y="31" font-size="11.5" fill="#57606a" font-family="-apple-system,BlinkMacSystemFont,'Segoe UI',Helvetica,Arial,sans-serif">Parséman (macro build)</text>
<rect x="196" y="20" width="11" height="11" rx="2" fill="#9B8FEF"/>
<text x="211" y="31" font-size="11.5" fill="#57606a" font-family="-apple-system,BlinkMacSystemFont,'Segoe UI',Helvetica,Arial,sans-serif">Parséman (.compile())</text>
<rect x="365" y="20" width="11" height="11" rx="2" fill="#C4BAFF"/>
<text x="380" y="31" font-size="11.5" fill="#57606a" font-family="-apple-system,BlinkMacSystemFont,'Segoe UI',Helvetica,Arial,sans-serif">Parséman (interpreter)</text>
<rect x="20" y="40" width="11" height="11" rx="2" fill="#1D9E75"/>
<text x="35" y="51" font-size="11.5" fill="#57606a" font-family="-apple-system,BlinkMacSystemFont,'Segoe UI',Helvetica,Arial,sans-serif">Peggy</text>
<rect x="77" y="40" width="11" height="11" rx="2" fill="#E24B4A"/>
<text x="92" y="51" font-size="11.5" fill="#57606a" font-family="-apple-system,BlinkMacSystemFont,'Segoe UI',Helvetica,Arial,sans-serif">Parsimmon</text>
<rect x="162" y="40" width="11" height="11" rx="2" fill="#BA7517"/>
<text x="177" y="51" font-size="11.5" fill="#57606a" font-family="-apple-system,BlinkMacSystemFont,'Segoe UI',Helvetica,Arial,sans-serif">Chevrotain</text>
<rect x="254" y="40" width="11" height="11" rx="2" fill="#3788C2"/>
<text x="269" y="51" font-size="11.5" fill="#57606a" font-family="-apple-system,BlinkMacSystemFont,'Segoe UI',Helvetica,Arial,sans-serif">Nearley</text>
<rect x="325" y="40" width="11" height="11" rx="2" fill="#7C5CFC"/>
<text x="340" y="51" font-size="11.5" fill="#57606a" font-family="-apple-system,BlinkMacSystemFont,'Segoe UI',Helvetica,Arial,sans-serif">Jison</text>
<rect x="382" y="40" width="11" height="11" rx="2" fill="#2E8B57"/>
<text x="397" y="51" font-size="11.5" fill="#57606a" font-family="-apple-system,BlinkMacSystemFont,'Segoe UI',Helvetica,Arial,sans-serif">JSON.parse (native)</text>
<text x="700" y="31" font-size="10.5" fill="#8c959f" text-anchor="end" font-family="-apple-system,BlinkMacSystemFont,'Segoe UI',Helvetica,Arial,sans-serif">µs — shorter is faster</text>
<text x="20" y="86" font-size="10.5" font-weight="600" fill="#8c959f" letter-spacing="0.06em" font-family="-apple-system,BlinkMacSystemFont,'Segoe UI',Helvetica,Arial,sans-serif">JSON PARSING</text>
<text x="20" y="101" font-size="12.5" fill="#57606a" font-family="-apple-system,BlinkMacSystemFont,'Segoe UI',Helvetica,Arial,sans-serif">initialization (one-time; others: no setup cost)</text>
<text x="230" y="136" text-anchor="end" font-size="12" fill="#24292f" font-family="-apple-system,BlinkMacSystemFont,'Segoe UI',Helvetica,Arial,sans-serif">Parséman (.compile())</text>
<rect x="238" y="121" width="386" height="18" rx="3" fill="#f0f0f5"/>
<rect x="238" y="121" width="57.7" height="18" rx="3" fill="#9B8FEF"/>
<text x="300.69542466121027" y="136" font-size="11" fill="#57606a" font-family="-apple-system,BlinkMacSystemFont,'Segoe UI',Helvetica,Arial,sans-serif">111 µs</text>
<text x="230" y="164" text-anchor="end" font-size="12" fill="#24292f" font-family="-apple-system,BlinkMacSystemFont,'Segoe UI',Helvetica,Arial,sans-serif">Chevrotain</text>
<rect x="238" y="149" width="386" height="18" rx="3" fill="#f0f0f5"/>
<rect x="238" y="149" width="386.0" height="18" rx="3" fill="#BA7517"/>
<text x="629" y="164" font-size="11" fill="#57606a" font-family="-apple-system,BlinkMacSystemFont,'Segoe UI',Helvetica,Arial,sans-serif">745 µs</text>
<line x1="20" y1="185" x2="700" y2="185" stroke="#eaeef2" stroke-width="1"/>
<text x="20" y="201" font-size="12.5" fill="#57606a" font-family="-apple-system,BlinkMacSystemFont,'Segoe UI',Helvetica,Arial,sans-serif">warm parse — small  (52 bytes)</text>
<text x="230" y="236" text-anchor="end" font-size="12" fill="#24292f" font-family="-apple-system,BlinkMacSystemFont,'Segoe UI',Helvetica,Arial,sans-serif">JSON.parse (native)</text>
<rect x="238" y="221" width="386" height="18" rx="3" fill="#eaeef2"/>
<rect x="238" y="221" width="3.1" height="18" rx="3" fill="#2E8B57"/>
<text x="246.06287938570844" y="236" font-size="11" fill="#57606a" font-family="-apple-system,BlinkMacSystemFont,'Segoe UI',Helvetica,Arial,sans-serif">0.17 µs</text>
<text x="230" y="264" text-anchor="end" font-size="12" fill="#24292f" font-family="-apple-system,BlinkMacSystemFont,'Segoe UI',Helvetica,Arial,sans-serif">Parséman (macro build)</text>
<rect x="238" y="249" width="386" height="18" rx="3" fill="#eaeef2"/>
<rect x="238" y="249" width="6.0" height="18" rx="3" fill="#534AB7"/>
<text x="248.97554062857455" y="264" font-size="11" fill="#57606a" font-family="-apple-system,BlinkMacSystemFont,'Segoe UI',Helvetica,Arial,sans-serif">0.65 µs</text>
<text x="230" y="292" text-anchor="end" font-size="12" fill="#24292f" font-family="-apple-system,BlinkMacSystemFont,'Segoe UI',Helvetica,Arial,sans-serif">Parséman (interpreter)</text>
<rect x="238" y="277" width="386" height="18" rx="3" fill="#eaeef2"/>
<rect x="238" y="277" width="9.0" height="18" rx="3" fill="#C4BAFF"/>
<text x="251.99442413286297" y="292" font-size="11" fill="#57606a" font-family="-apple-system,BlinkMacSystemFont,'Segoe UI',Helvetica,Arial,sans-serif">1.46 µs</text>
<text x="230" y="320" text-anchor="end" font-size="12" fill="#24292f" font-family="-apple-system,BlinkMacSystemFont,'Segoe UI',Helvetica,Arial,sans-serif">Peggy</text>
<rect x="238" y="305" width="386" height="18" rx="3" fill="#eaeef2"/>
<rect x="238" y="305" width="12.2" height="18" rx="3" fill="#1D9E75"/>
<text x="255.18530154196796" y="320" font-size="11" fill="#57606a" font-family="-apple-system,BlinkMacSystemFont,'Segoe UI',Helvetica,Arial,sans-serif">2.69 µs</text>
<text x="230" y="348" text-anchor="end" font-size="12" fill="#24292f" font-family="-apple-system,BlinkMacSystemFont,'Segoe UI',Helvetica,Arial,sans-serif">Parsimmon</text>
<rect x="238" y="333" width="386" height="18" rx="3" fill="#eaeef2"/>
<rect x="238" y="333" width="18.4" height="18" rx="3" fill="#E24B4A"/>
<text x="261.3960935237189" y="348" font-size="11" fill="#57606a" font-family="-apple-system,BlinkMacSystemFont,'Segoe UI',Helvetica,Arial,sans-serif">6.12 µs</text>
<text x="230" y="376" text-anchor="end" font-size="12" fill="#24292f" font-family="-apple-system,BlinkMacSystemFont,'Segoe UI',Helvetica,Arial,sans-serif">Jison</text>
<rect x="238" y="361" width="386" height="18" rx="3" fill="#eaeef2"/>
<rect x="238" y="361" width="18.9" height="18" rx="3" fill="#7C5CFC"/>
<text x="261.90444720333784" y="376" font-size="11" fill="#57606a" font-family="-apple-system,BlinkMacSystemFont,'Segoe UI',Helvetica,Arial,sans-serif">6.47 µs</text>
<text x="230" y="404" text-anchor="end" font-size="12" fill="#24292f" font-family="-apple-system,BlinkMacSystemFont,'Segoe UI',Helvetica,Arial,sans-serif">Nearley</text>
<rect x="238" y="389" width="386" height="18" rx="3" fill="#eaeef2"/>
<rect x="238" y="389" width="19.7" height="18" rx="3" fill="#3788C2"/>
<text x="262.68348729352107" y="404" font-size="11" fill="#57606a" font-family="-apple-system,BlinkMacSystemFont,'Segoe UI',Helvetica,Arial,sans-serif">7.01 µs</text>
<text x="230" y="432" text-anchor="end" font-size="12" fill="#24292f" font-family="-apple-system,BlinkMacSystemFont,'Segoe UI',Helvetica,Arial,sans-serif">Chevrotain</text>
<rect x="238" y="417" width="386" height="18" rx="3" fill="#eaeef2"/>
<rect x="238" y="417" width="20.1" height="18" rx="3" fill="#BA7517"/>
<text x="263.13639058596254" y="432" font-size="11" fill="#57606a" font-family="-apple-system,BlinkMacSystemFont,'Segoe UI',Helvetica,Arial,sans-serif">7.34 µs</text>
<text x="20" y="461" font-size="12.5" fill="#57606a" font-family="-apple-system,BlinkMacSystemFont,'Segoe UI',Helvetica,Arial,sans-serif">warm parse — medium  (1.8 kB)</text>
<text x="230" y="496" text-anchor="end" font-size="12" fill="#24292f" font-family="-apple-system,BlinkMacSystemFont,'Segoe UI',Helvetica,Arial,sans-serif">JSON.parse (native)</text>
<rect x="238" y="481" width="386" height="18" rx="3" fill="#eaeef2"/>
<rect x="238" y="481" width="14.6" height="18" rx="3" fill="#2E8B57"/>
<text x="257.61901766661686" y="496" font-size="11" fill="#57606a" font-family="-apple-system,BlinkMacSystemFont,'Segoe UI',Helvetica,Arial,sans-serif">3.87 µs</text>
<text x="230" y="524" text-anchor="end" font-size="12" fill="#24292f" font-family="-apple-system,BlinkMacSystemFont,'Segoe UI',Helvetica,Arial,sans-serif">Parséman (macro build)</text>
<rect x="238" y="509" width="386" height="18" rx="3" fill="#eaeef2"/>
<rect x="238" y="509" width="29.5" height="18" rx="3" fill="#534AB7"/>
<text x="272.45766397570327" y="524" font-size="11" fill="#57606a" font-family="-apple-system,BlinkMacSystemFont,'Segoe UI',Helvetica,Arial,sans-serif">15.7 µs</text>
<text x="230" y="552" text-anchor="end" font-size="12" fill="#24292f" font-family="-apple-system,BlinkMacSystemFont,'Segoe UI',Helvetica,Arial,sans-serif">Parséman (interpreter)</text>
<rect x="238" y="537" width="386" height="18" rx="3" fill="#eaeef2"/>
<rect x="238" y="537" width="49.1" height="18" rx="3" fill="#C4BAFF"/>
<text x="292.079462734045" y="552" font-size="11" fill="#57606a" font-family="-apple-system,BlinkMacSystemFont,'Segoe UI',Helvetica,Arial,sans-serif">43.6 µs</text>
<text x="230" y="580" text-anchor="end" font-size="12" fill="#24292f" font-family="-apple-system,BlinkMacSystemFont,'Segoe UI',Helvetica,Arial,sans-serif">Peggy</text>
<rect x="238" y="565" width="386" height="18" rx="3" fill="#eaeef2"/>
<rect x="238" y="565" width="61.2" height="18" rx="3" fill="#1D9E75"/>
<text x="304.16511854109024" y="580" font-size="11" fill="#57606a" font-family="-apple-system,BlinkMacSystemFont,'Segoe UI',Helvetica,Arial,sans-serif">67.7 µs</text>
<text x="230" y="608" text-anchor="end" font-size="12" fill="#24292f" font-family="-apple-system,BlinkMacSystemFont,'Segoe UI',Helvetica,Arial,sans-serif">Parsimmon</text>
<rect x="238" y="593" width="386" height="18" rx="3" fill="#eaeef2"/>
<rect x="238" y="593" width="102.3" height="18" rx="3" fill="#E24B4A"/>
<text x="345.29819299724755" y="608" font-size="11" fill="#57606a" font-family="-apple-system,BlinkMacSystemFont,'Segoe UI',Helvetica,Arial,sans-serif">189 µs</text>
<text x="230" y="636" text-anchor="end" font-size="12" fill="#24292f" font-family="-apple-system,BlinkMacSystemFont,'Segoe UI',Helvetica,Arial,sans-serif">Jison</text>
<rect x="238" y="621" width="386" height="18" rx="3" fill="#eaeef2"/>
<rect x="238" y="621" width="106.5" height="18" rx="3" fill="#7C5CFC"/>
<text x="349.49610261186547" y="636" font-size="11" fill="#57606a" font-family="-apple-system,BlinkMacSystemFont,'Segoe UI',Helvetica,Arial,sans-serif">205 µs</text>
<text x="230" y="664" text-anchor="end" font-size="12" fill="#24292f" font-family="-apple-system,BlinkMacSystemFont,'Segoe UI',Helvetica,Arial,sans-serif">Chevrotain</text>
<rect x="238" y="649" width="386" height="18" rx="3" fill="#eaeef2"/>
<rect x="238" y="649" width="114.8" height="18" rx="3" fill="#BA7517"/>
<text x="357.8313867343248" y="664" font-size="11" fill="#57606a" font-family="-apple-system,BlinkMacSystemFont,'Segoe UI',Helvetica,Arial,sans-serif">239 µs</text>
<text x="230" y="692" text-anchor="end" font-size="12" fill="#24292f" font-family="-apple-system,BlinkMacSystemFont,'Segoe UI',Helvetica,Arial,sans-serif">Nearley</text>
<rect x="238" y="677" width="386" height="18" rx="3" fill="#eaeef2"/>
<rect x="238" y="677" width="130.4" height="18" rx="3" fill="#3788C2"/>
<text x="373.3661402349543" y="692" font-size="11" fill="#57606a" font-family="-apple-system,BlinkMacSystemFont,'Segoe UI',Helvetica,Arial,sans-serif">308 µs</text>
<text x="20" y="721" font-size="12.5" fill="#57606a" font-family="-apple-system,BlinkMacSystemFont,'Segoe UI',Helvetica,Arial,sans-serif">warm parse — large  (11.9 kB)</text>
<text x="230" y="756" text-anchor="end" font-size="12" fill="#24292f" font-family="-apple-system,BlinkMacSystemFont,'Segoe UI',Helvetica,Arial,sans-serif">JSON.parse (native)</text>
<rect x="238" y="741" width="386" height="18" rx="3" fill="#eaeef2"/>
<rect x="238" y="741" width="46.6" height="18" rx="3" fill="#2E8B57"/>
<text x="289.5792578265688" y="756" font-size="11" fill="#57606a" font-family="-apple-system,BlinkMacSystemFont,'Segoe UI',Helvetica,Arial,sans-serif">39.3 µs</text>
<text x="230" y="784" text-anchor="end" font-size="12" fill="#24292f" font-family="-apple-system,BlinkMacSystemFont,'Segoe UI',Helvetica,Arial,sans-serif">Parséman (macro build)</text>
<rect x="238" y="769" width="386" height="18" rx="3" fill="#eaeef2"/>
<rect x="238" y="769" width="83.9" height="18" rx="3" fill="#534AB7"/>
<text x="326.9442324281635" y="784" font-size="11" fill="#57606a" font-family="-apple-system,BlinkMacSystemFont,'Segoe UI',Helvetica,Arial,sans-serif">128 µs</text>
<text x="230" y="812" text-anchor="end" font-size="12" fill="#24292f" font-family="-apple-system,BlinkMacSystemFont,'Segoe UI',Helvetica,Arial,sans-serif">Parséman (interpreter)</text>
<rect x="238" y="797" width="386" height="18" rx="3" fill="#eaeef2"/>
<rect x="238" y="797" width="145.4" height="18" rx="3" fill="#C4BAFF"/>
<text x="388.3607666126485" y="812" font-size="11" fill="#57606a" font-family="-apple-system,BlinkMacSystemFont,'Segoe UI',Helvetica,Arial,sans-serif">382 µs</text>
<text x="230" y="840" text-anchor="end" font-size="12" fill="#24292f" font-family="-apple-system,BlinkMacSystemFont,'Segoe UI',Helvetica,Arial,sans-serif">Peggy</text>
<rect x="238" y="825" width="386" height="18" rx="3" fill="#eaeef2"/>
<rect x="238" y="825" width="163.5" height="18" rx="3" fill="#1D9E75"/>
<text x="406.4928970487017" y="840" font-size="11" fill="#57606a" font-family="-apple-system,BlinkMacSystemFont,'Segoe UI',Helvetica,Arial,sans-serif">484 µs</text>
<text x="230" y="868" text-anchor="end" font-size="12" fill="#24292f" font-family="-apple-system,BlinkMacSystemFont,'Segoe UI',Helvetica,Arial,sans-serif">Parsimmon</text>
<rect x="238" y="853" width="386" height="18" rx="3" fill="#eaeef2"/>
<rect x="238" y="853" width="284.7" height="18" rx="3" fill="#E24B4A"/>
<text x="527.732428185448" y="868" font-size="11" fill="#57606a" font-family="-apple-system,BlinkMacSystemFont,'Segoe UI',Helvetica,Arial,sans-serif">1.47 ms</text>
<text x="230" y="896" text-anchor="end" font-size="12" fill="#24292f" font-family="-apple-system,BlinkMacSystemFont,'Segoe UI',Helvetica,Arial,sans-serif">Jison</text>
<rect x="238" y="881" width="386" height="18" rx="3" fill="#eaeef2"/>
<rect x="238" y="881" width="299.7" height="18" rx="3" fill="#7C5CFC"/>
<text x="542.6655710269199" y="896" font-size="11" fill="#57606a" font-family="-apple-system,BlinkMacSystemFont,'Segoe UI',Helvetica,Arial,sans-serif">1.62 ms</text>
<text x="230" y="924" text-anchor="end" font-size="12" fill="#24292f" font-family="-apple-system,BlinkMacSystemFont,'Segoe UI',Helvetica,Arial,sans-serif">Chevrotain</text>
<rect x="238" y="909" width="386" height="18" rx="3" fill="#eaeef2"/>
<rect x="238" y="909" width="310.4" height="18" rx="3" fill="#BA7517"/>
<text x="553.4103505265223" y="924" font-size="11" fill="#57606a" font-family="-apple-system,BlinkMacSystemFont,'Segoe UI',Helvetica,Arial,sans-serif">1.74 ms</text>
<text x="230" y="952" text-anchor="end" font-size="12" fill="#24292f" font-family="-apple-system,BlinkMacSystemFont,'Segoe UI',Helvetica,Arial,sans-serif">Nearley</text>
<rect x="238" y="937" width="386" height="18" rx="3" fill="#eaeef2"/>
<rect x="238" y="937" width="386.0" height="18" rx="3" fill="#3788C2"/>
<text x="629" y="952" font-size="11" fill="#57606a" font-family="-apple-system,BlinkMacSystemFont,'Segoe UI',Helvetica,Arial,sans-serif">2.70 ms</text>
</svg>