<svg xmlns="http://www.w3.org/2000/svg" viewBox="0 0 720 694" width="720" height="694">
<rect width="720" height="694" fill="white" rx="6"/>
<rect x="20" y="20" width="11" height="11" rx="2" fill="#5B7FC7"/>
<text x="35" y="31" font-size="11.5" fill="#57606a" font-family="-apple-system,BlinkMacSystemFont,'Segoe UI',Helvetica,Arial,sans-serif">Lezer (parse only)</text>
<rect x="168" y="20" width="11" height="11" rx="2" fill="#8FA8D9"/>
<text x="183" y="31" font-size="11.5" fill="#57606a" font-family="-apple-system,BlinkMacSystemFont,'Segoe UI',Helvetica,Arial,sans-serif">Lezer (parse + walk)</text>
<rect x="330" y="20" width="11" height="11" rx="2" fill="#534AB7"/>
<text x="345" y="31" font-size="11.5" fill="#57606a" font-family="-apple-system,BlinkMacSystemFont,'Segoe UI',Helvetica,Arial,sans-serif">Parséman CST (macro build)</text>
<rect x="20" y="40" width="11" height="11" rx="2" fill="#C4BAFF"/>
<text x="35" y="51" font-size="11.5" fill="#57606a" font-family="-apple-system,BlinkMacSystemFont,'Segoe UI',Helvetica,Arial,sans-serif">Parséman CST (interpreter)</text>
<rect x="224" y="40" width="11" height="11" rx="2" fill="#BA7517"/>
<text x="239" y="51" font-size="11.5" fill="#57606a" font-family="-apple-system,BlinkMacSystemFont,'Segoe UI',Helvetica,Arial,sans-serif">Chevrotain CST</text>
<text x="700" y="31" font-size="10.5" fill="#8c959f" text-anchor="end" font-family="-apple-system,BlinkMacSystemFont,'Segoe UI',Helvetica,Arial,sans-serif">µs — shorter is faster</text>
<text x="20" y="86" font-size="10.5" font-weight="600" fill="#8c959f" letter-spacing="0.06em" font-family="-apple-system,BlinkMacSystemFont,'Segoe UI',Helvetica,Arial,sans-serif">JSON CST — SYNTAX TREE BUILDING</text>
<text x="20" y="101" font-size="12.5" fill="#57606a" font-family="-apple-system,BlinkMacSystemFont,'Segoe UI',Helvetica,Arial,sans-serif">initialization (macro build: zero runtime cost; others: no setup)</text>
<line x1="20" y1="129" x2="700" y2="129" stroke="#eaeef2" stroke-width="1"/>
<text x="20" y="145" font-size="12.5" fill="#57606a" font-family="-apple-system,BlinkMacSystemFont,'Segoe UI',Helvetica,Arial,sans-serif">warm parse — small  (52 bytes)</text>
<text x="230" y="180" text-anchor="end" font-size="12" fill="#24292f" font-family="-apple-system,BlinkMacSystemFont,'Segoe UI',Helvetica,Arial,sans-serif">Parséman CST (macro build)</text>
<rect x="238" y="165" width="386" height="18" rx="3" fill="#eaeef2"/>
<rect x="238" y="165" width="7.4" height="18" rx="3" fill="#534AB7"/>
<text x="250.353755904608" y="180" font-size="11" fill="#57606a" font-family="-apple-system,BlinkMacSystemFont,'Segoe UI',Helvetica,Arial,sans-serif">0.72 µs</text>
<text x="230" y="208" text-anchor="end" font-size="12" fill="#24292f" font-family="-apple-system,BlinkMacSystemFont,'Segoe UI',Helvetica,Arial,sans-serif">Lezer (parse only)</text>
<rect x="238" y="193" width="386" height="18" rx="3" fill="#eaeef2"/>
<rect x="238" y="193" width="13.2" height="18" rx="3" fill="#5B7FC7"/>
<text x="256.19465706910626" y="208" font-size="11" fill="#57606a" font-family="-apple-system,BlinkMacSystemFont,'Segoe UI',Helvetica,Arial,sans-serif">2.31 µs</text>
<text x="230" y="236" text-anchor="end" font-size="12" fill="#24292f" font-family="-apple-system,BlinkMacSystemFont,'Segoe UI',Helvetica,Arial,sans-serif">Parséman CST (interpreter)</text>
<rect x="238" y="221" width="386" height="18" rx="3" fill="#eaeef2"/>
<rect x="238" y="221" width="14.0" height="18" rx="3" fill="#C4BAFF"/>
<text x="256.9768010820026" y="236" font-size="11" fill="#57606a" font-family="-apple-system,BlinkMacSystemFont,'Segoe UI',Helvetica,Arial,sans-serif">2.59 µs</text>
<text x="230" y="264" text-anchor="end" font-size="12" fill="#24292f" font-family="-apple-system,BlinkMacSystemFont,'Segoe UI',Helvetica,Arial,sans-serif">Lezer (parse + walk)</text>
<rect x="238" y="249" width="386" height="18" rx="3" fill="#eaeef2"/>
<rect x="238" y="249" width="14.0" height="18" rx="3" fill="#8FA8D9"/>
<text x="257.0040778888002" y="264" font-size="11" fill="#57606a" font-family="-apple-system,BlinkMacSystemFont,'Segoe UI',Helvetica,Arial,sans-serif">2.60 µs</text>
<text x="230" y="292" text-anchor="end" font-size="12" fill="#24292f" font-family="-apple-system,BlinkMacSystemFont,'Segoe UI',Helvetica,Arial,sans-serif">Chevrotain CST</text>
<rect x="238" y="277" width="386" height="18" rx="3" fill="#eaeef2"/>
<rect x="238" y="277" width="24.8" height="18" rx="3" fill="#BA7517"/>
<text x="267.84482176522647" y="292" font-size="11" fill="#57606a" font-family="-apple-system,BlinkMacSystemFont,'Segoe UI',Helvetica,Arial,sans-serif">8.19 µs</text>
<text x="20" y="321" font-size="12.5" fill="#57606a" font-family="-apple-system,BlinkMacSystemFont,'Segoe UI',Helvetica,Arial,sans-serif">warm parse — medium  (1.8 kB)</text>
<text x="230" y="356" text-anchor="end" font-size="12" fill="#24292f" font-family="-apple-system,BlinkMacSystemFont,'Segoe UI',Helvetica,Arial,sans-serif">Parséman CST (macro build)</text>
<rect x="238" y="341" width="386" height="18" rx="3" fill="#eaeef2"/>
<rect x="238" y="341" width="40.0" height="18" rx="3" fill="#534AB7"/>
<text x="282.9908325223525" y="356" font-size="11" fill="#57606a" font-family="-apple-system,BlinkMacSystemFont,'Segoe UI',Helvetica,Arial,sans-serif">21.2 µs</text>
<text x="230" y="384" text-anchor="end" font-size="12" fill="#24292f" font-family="-apple-system,BlinkMacSystemFont,'Segoe UI',Helvetica,Arial,sans-serif">Lezer (parse only)</text>
<rect x="238" y="369" width="386" height="18" rx="3" fill="#eaeef2"/>
<rect x="238" y="369" width="73.2" height="18" rx="3" fill="#5B7FC7"/>
<text x="316.2148639971747" y="384" font-size="11" fill="#57606a" font-family="-apple-system,BlinkMacSystemFont,'Segoe UI',Helvetica,Arial,sans-serif">71.2 µs</text>
<text x="230" y="412" text-anchor="end" font-size="12" fill="#24292f" font-family="-apple-system,BlinkMacSystemFont,'Segoe UI',Helvetica,Arial,sans-serif">Lezer (parse + walk)</text>
<rect x="238" y="397" width="386" height="18" rx="3" fill="#eaeef2"/>
<rect x="238" y="397" width="77.4" height="18" rx="3" fill="#8FA8D9"/>
<text x="320.3599571034063" y="412" font-size="11" fill="#57606a" font-family="-apple-system,BlinkMacSystemFont,'Segoe UI',Helvetica,Arial,sans-serif">79.4 µs</text>
<text x="230" y="440" text-anchor="end" font-size="12" fill="#24292f" font-family="-apple-system,BlinkMacSystemFont,'Segoe UI',Helvetica,Arial,sans-serif">Parséman CST (interpreter)</text>
<rect x="238" y="425" width="386" height="18" rx="3" fill="#eaeef2"/>
<rect x="238" y="425" width="83.7" height="18" rx="3" fill="#C4BAFF"/>
<text x="326.6672107967457" y="440" font-size="11" fill="#57606a" font-family="-apple-system,BlinkMacSystemFont,'Segoe UI',Helvetica,Arial,sans-serif">92.9 µs</text>
<text x="230" y="468" text-anchor="end" font-size="12" fill="#24292f" font-family="-apple-system,BlinkMacSystemFont,'Segoe UI',Helvetica,Arial,sans-serif">Chevrotain CST</text>
<rect x="238" y="453" width="386" height="18" rx="3" fill="#eaeef2"/>
<rect x="238" y="453" width="140.1" height="18" rx="3" fill="#BA7517"/>
<text x="383.06672100298215" y="468" font-size="11" fill="#57606a" font-family="-apple-system,BlinkMacSystemFont,'Segoe UI',Helvetica,Arial,sans-serif">260 µs</text>
<text x="20" y="497" font-size="12.5" fill="#57606a" font-family="-apple-system,BlinkMacSystemFont,'Segoe UI',Helvetica,Arial,sans-serif">warm parse — large  (11.9 kB)</text>
<text x="230" y="532" text-anchor="end" font-size="12" fill="#24292f" font-family="-apple-system,BlinkMacSystemFont,'Segoe UI',Helvetica,Arial,sans-serif">Parséman CST (macro build)</text>
<rect x="238" y="517" width="386" height="18" rx="3" fill="#eaeef2"/>
<rect x="238" y="517" width="114.6" height="18" rx="3" fill="#534AB7"/>
<text x="357.5952362385415" y="532" font-size="11" fill="#57606a" font-family="-apple-system,BlinkMacSystemFont,'Segoe UI',Helvetica,Arial,sans-serif">174 µs</text>
<text x="230" y="560" text-anchor="end" font-size="12" fill="#24292f" font-family="-apple-system,BlinkMacSystemFont,'Segoe UI',Helvetica,Arial,sans-serif">Parséman CST (interpreter)</text>
<rect x="238" y="545" width="386" height="18" rx="3" fill="#eaeef2"/>
<rect x="238" y="545" width="208.9" height="18" rx="3" fill="#C4BAFF"/>
<text x="451.87792301339573" y="560" font-size="11" fill="#57606a" font-family="-apple-system,BlinkMacSystemFont,'Segoe UI',Helvetica,Arial,sans-serif">579 µs</text>
<text x="230" y="588" text-anchor="end" font-size="12" fill="#24292f" font-family="-apple-system,BlinkMacSystemFont,'Segoe UI',Helvetica,Arial,sans-serif">Lezer (parse only)</text>
<rect x="238" y="573" width="386" height="18" rx="3" fill="#eaeef2"/>
<rect x="238" y="573" width="211.5" height="18" rx="3" fill="#5B7FC7"/>
<text x="454.46807988400633" y="588" font-size="11" fill="#57606a" font-family="-apple-system,BlinkMacSystemFont,'Segoe UI',Helvetica,Arial,sans-serif">594 µs</text>
<text x="230" y="616" text-anchor="end" font-size="12" fill="#24292f" font-family="-apple-system,BlinkMacSystemFont,'Segoe UI',Helvetica,Arial,sans-serif">Lezer (parse + walk)</text>
<rect x="238" y="601" width="386" height="18" rx="3" fill="#eaeef2"/>
<rect x="238" y="601" width="223.7" height="18" rx="3" fill="#8FA8D9"/>
<text x="466.7093282759212" y="616" font-size="11" fill="#57606a" font-family="-apple-system,BlinkMacSystemFont,'Segoe UI',Helvetica,Arial,sans-serif">664 µs</text>
<text x="230" y="644" text-anchor="end" font-size="12" fill="#24292f" font-family="-apple-system,BlinkMacSystemFont,'Segoe UI',Helvetica,Arial,sans-serif">Chevrotain CST</text>
<rect x="238" y="629" width="386" height="18" rx="3" fill="#eaeef2"/>
<rect x="238" y="629" width="386.0" height="18" rx="3" fill="#BA7517"/>
<text x="629" y="644" font-size="11" fill="#57606a" font-family="-apple-system,BlinkMacSystemFont,'Segoe UI',Helvetica,Arial,sans-serif">1.98 ms</text>
</svg>