<svg xmlns="http://www.w3.org/2000/svg" viewBox="0 0 720 750" width="720" height="750">
<rect width="720" height="750" fill="white" rx="6"/>
<rect x="20" y="20" width="11" height="11" rx="2" fill="#534AB7"/>
<text x="35" y="31" font-size="11.5" fill="#57606a" font-family="-apple-system,BlinkMacSystemFont,'Segoe UI',Helvetica,Arial,sans-serif">Parséman (macro build)</text>
<rect x="196" y="20" width="11" height="11" rx="2" fill="#9B8FEF"/>
<text x="211" y="31" font-size="11.5" fill="#57606a" font-family="-apple-system,BlinkMacSystemFont,'Segoe UI',Helvetica,Arial,sans-serif">Parséman (.compile())</text>
<rect x="365" y="20" width="11" height="11" rx="2" fill="#C4BAFF"/>
<text x="380" y="31" font-size="11.5" fill="#57606a" font-family="-apple-system,BlinkMacSystemFont,'Segoe UI',Helvetica,Arial,sans-serif">Parséman (no compile)</text>
<rect x="20" y="40" width="11" height="11" rx="2" fill="#1D9E75"/>
<text x="35" y="51" font-size="11.5" fill="#57606a" font-family="-apple-system,BlinkMacSystemFont,'Segoe UI',Helvetica,Arial,sans-serif">Peggy</text>
<rect x="77" y="40" width="11" height="11" rx="2" fill="#E24B4A"/>
<text x="92" y="51" font-size="11.5" fill="#57606a" font-family="-apple-system,BlinkMacSystemFont,'Segoe UI',Helvetica,Arial,sans-serif">Parsimmon</text>
<rect x="162" y="40" width="11" height="11" rx="2" fill="#BA7517"/>
<text x="177" y="51" font-size="11.5" fill="#57606a" font-family="-apple-system,BlinkMacSystemFont,'Segoe UI',Helvetica,Arial,sans-serif">Chevrotain</text>
<text x="700" y="31" font-size="10.5" fill="#8c959f" text-anchor="end" font-family="-apple-system,BlinkMacSystemFont,'Segoe UI',Helvetica,Arial,sans-serif">µs — shorter is faster</text>
<text x="20" y="86" font-size="10.5" font-weight="600" fill="#8c959f" letter-spacing="0.06em" font-family="-apple-system,BlinkMacSystemFont,'Segoe UI',Helvetica,Arial,sans-serif">GRAPHQL PARSING</text>
<text x="20" y="101" font-size="12.5" fill="#57606a" font-family="-apple-system,BlinkMacSystemFont,'Segoe UI',Helvetica,Arial,sans-serif">initialization (one-time; others: no setup cost)</text>
<text x="230" y="136" text-anchor="end" font-size="12" fill="#24292f" font-family="-apple-system,BlinkMacSystemFont,'Segoe UI',Helvetica,Arial,sans-serif">Parséman (.compile())</text>
<rect x="238" y="121" width="386" height="18" rx="3" fill="#f0f0f5"/>
<rect x="238" y="121" width="179.4" height="18" rx="3" fill="#9B8FEF"/>
<text x="422.35885648613703" y="136" font-size="11" fill="#57606a" font-family="-apple-system,BlinkMacSystemFont,'Segoe UI',Helvetica,Arial,sans-serif">647 µs</text>
<text x="230" y="164" text-anchor="end" font-size="12" fill="#24292f" font-family="-apple-system,BlinkMacSystemFont,'Segoe UI',Helvetica,Arial,sans-serif">Chevrotain</text>
<rect x="238" y="149" width="386" height="18" rx="3" fill="#f0f0f5"/>
<rect x="238" y="149" width="386.0" height="18" rx="3" fill="#BA7517"/>
<text x="629" y="164" font-size="11" fill="#57606a" font-family="-apple-system,BlinkMacSystemFont,'Segoe UI',Helvetica,Arial,sans-serif">1.39 ms</text>
<line x1="20" y1="185" x2="700" y2="185" stroke="#eaeef2" stroke-width="1"/>
<text x="20" y="201" font-size="12.5" fill="#57606a" font-family="-apple-system,BlinkMacSystemFont,'Segoe UI',Helvetica,Arial,sans-serif">warm parse — small  (27 bytes)</text>
<text x="230" y="236" text-anchor="end" font-size="12" fill="#24292f" font-family="-apple-system,BlinkMacSystemFont,'Segoe UI',Helvetica,Arial,sans-serif">Parséman (macro build)</text>
<rect x="238" y="221" width="386" height="18" rx="3" fill="#eaeef2"/>
<rect x="238" y="221" width="9.0" height="18" rx="3" fill="#534AB7"/>
<text x="252.00060372509307" y="236" font-size="11" fill="#57606a" font-family="-apple-system,BlinkMacSystemFont,'Segoe UI',Helvetica,Arial,sans-serif">0.85 µs</text>
<text x="230" y="264" text-anchor="end" font-size="12" fill="#24292f" font-family="-apple-system,BlinkMacSystemFont,'Segoe UI',Helvetica,Arial,sans-serif">Peggy</text>
<rect x="238" y="249" width="386" height="18" rx="3" fill="#eaeef2"/>
<rect x="238" y="249" width="15.1" height="18" rx="3" fill="#1D9E75"/>
<text x="258.0809328302902" y="264" font-size="11" fill="#57606a" font-family="-apple-system,BlinkMacSystemFont,'Segoe UI',Helvetica,Arial,sans-serif">2.39 µs</text>
<text x="230" y="292" text-anchor="end" font-size="12" fill="#24292f" font-family="-apple-system,BlinkMacSystemFont,'Segoe UI',Helvetica,Arial,sans-serif">Parséman (no compile)</text>
<rect x="238" y="277" width="386" height="18" rx="3" fill="#eaeef2"/>
<rect x="238" y="277" width="19.6" height="18" rx="3" fill="#C4BAFF"/>
<text x="262.58439642602406" y="292" font-size="11" fill="#57606a" font-family="-apple-system,BlinkMacSystemFont,'Segoe UI',Helvetica,Arial,sans-serif">4.03 µs</text>
<text x="230" y="320" text-anchor="end" font-size="12" fill="#24292f" font-family="-apple-system,BlinkMacSystemFont,'Segoe UI',Helvetica,Arial,sans-serif">Chevrotain</text>
<rect x="238" y="305" width="386" height="18" rx="3" fill="#eaeef2"/>
<rect x="238" y="305" width="20.5" height="18" rx="3" fill="#BA7517"/>
<text x="263.4608420094968" y="320" font-size="11" fill="#57606a" font-family="-apple-system,BlinkMacSystemFont,'Segoe UI',Helvetica,Arial,sans-serif">4.40 µs</text>
<text x="230" y="348" text-anchor="end" font-size="12" fill="#24292f" font-family="-apple-system,BlinkMacSystemFont,'Segoe UI',Helvetica,Arial,sans-serif">Parsimmon</text>
<rect x="238" y="333" width="386" height="18" rx="3" fill="#eaeef2"/>
<rect x="238" y="333" width="32.8" height="18" rx="3" fill="#E24B4A"/>
<text x="275.8236628636273" y="348" font-size="11" fill="#57606a" font-family="-apple-system,BlinkMacSystemFont,'Segoe UI',Helvetica,Arial,sans-serif">11.3 µs</text>
<text x="20" y="377" font-size="12.5" fill="#57606a" font-family="-apple-system,BlinkMacSystemFont,'Segoe UI',Helvetica,Arial,sans-serif">warm parse — medium  (336 bytes)</text>
<text x="230" y="412" text-anchor="end" font-size="12" fill="#24292f" font-family="-apple-system,BlinkMacSystemFont,'Segoe UI',Helvetica,Arial,sans-serif">Parséman (macro build)</text>
<rect x="238" y="397" width="386" height="18" rx="3" fill="#eaeef2"/>
<rect x="238" y="397" width="23.5" height="18" rx="3" fill="#534AB7"/>
<text x="266.5068419381693" y="412" font-size="11" fill="#57606a" font-family="-apple-system,BlinkMacSystemFont,'Segoe UI',Helvetica,Arial,sans-serif">5.81 µs</text>
<text x="230" y="440" text-anchor="end" font-size="12" fill="#24292f" font-family="-apple-system,BlinkMacSystemFont,'Segoe UI',Helvetica,Arial,sans-serif">Peggy</text>
<rect x="238" y="425" width="386" height="18" rx="3" fill="#eaeef2"/>
<rect x="238" y="425" width="39.1" height="18" rx="3" fill="#1D9E75"/>
<text x="282.1008550503904" y="440" font-size="11" fill="#57606a" font-family="-apple-system,BlinkMacSystemFont,'Segoe UI',Helvetica,Arial,sans-serif">16.1 µs</text>
<text x="230" y="468" text-anchor="end" font-size="12" fill="#24292f" font-family="-apple-system,BlinkMacSystemFont,'Segoe UI',Helvetica,Arial,sans-serif">Parséman (no compile)</text>
<rect x="238" y="453" width="386" height="18" rx="3" fill="#eaeef2"/>
<rect x="238" y="453" width="47.7" height="18" rx="3" fill="#C4BAFF"/>
<text x="290.67036976339784" y="468" font-size="11" fill="#57606a" font-family="-apple-system,BlinkMacSystemFont,'Segoe UI',Helvetica,Arial,sans-serif">23.9 µs</text>
<text x="230" y="496" text-anchor="end" font-size="12" fill="#24292f" font-family="-apple-system,BlinkMacSystemFont,'Segoe UI',Helvetica,Arial,sans-serif">Chevrotain</text>
<rect x="238" y="481" width="386" height="18" rx="3" fill="#eaeef2"/>
<rect x="238" y="481" width="50.0" height="18" rx="3" fill="#BA7517"/>
<text x="293.03078495107445" y="496" font-size="11" fill="#57606a" font-family="-apple-system,BlinkMacSystemFont,'Segoe UI',Helvetica,Arial,sans-serif">26.3 µs</text>
<text x="230" y="524" text-anchor="end" font-size="12" fill="#24292f" font-family="-apple-system,BlinkMacSystemFont,'Segoe UI',Helvetica,Arial,sans-serif">Parsimmon</text>
<rect x="238" y="509" width="386" height="18" rx="3" fill="#eaeef2"/>
<rect x="238" y="509" width="73.7" height="18" rx="3" fill="#E24B4A"/>
<text x="316.7082072187096" y="524" font-size="11" fill="#57606a" font-family="-apple-system,BlinkMacSystemFont,'Segoe UI',Helvetica,Arial,sans-serif">57.2 µs</text>
<text x="20" y="553" font-size="12.5" fill="#57606a" font-family="-apple-system,BlinkMacSystemFont,'Segoe UI',Helvetica,Arial,sans-serif">warm parse — large  (7.8 kB)</text>
<text x="230" y="588" text-anchor="end" font-size="12" fill="#24292f" font-family="-apple-system,BlinkMacSystemFont,'Segoe UI',Helvetica,Arial,sans-serif">Parséman (macro build)</text>
<rect x="238" y="573" width="386" height="18" rx="3" fill="#eaeef2"/>
<rect x="238" y="573" width="117.5" height="18" rx="3" fill="#534AB7"/>
<text x="360.4679938063042" y="588" font-size="11" fill="#57606a" font-family="-apple-system,BlinkMacSystemFont,'Segoe UI',Helvetica,Arial,sans-serif">145 µs</text>
<text x="230" y="616" text-anchor="end" font-size="12" fill="#24292f" font-family="-apple-system,BlinkMacSystemFont,'Segoe UI',Helvetica,Arial,sans-serif">Peggy</text>
<rect x="238" y="601" width="386" height="18" rx="3" fill="#eaeef2"/>
<rect x="238" y="601" width="188.3" height="18" rx="3" fill="#1D9E75"/>
<text x="431.2995304474465" y="616" font-size="11" fill="#57606a" font-family="-apple-system,BlinkMacSystemFont,'Segoe UI',Helvetica,Arial,sans-serif">373 µs</text>
<text x="230" y="644" text-anchor="end" font-size="12" fill="#24292f" font-family="-apple-system,BlinkMacSystemFont,'Segoe UI',Helvetica,Arial,sans-serif">Parséman (no compile)</text>
<rect x="238" y="629" width="386" height="18" rx="3" fill="#eaeef2"/>
<rect x="238" y="629" width="245.9" height="18" rx="3" fill="#C4BAFF"/>
<text x="488.9072727034478" y="644" font-size="11" fill="#57606a" font-family="-apple-system,BlinkMacSystemFont,'Segoe UI',Helvetica,Arial,sans-serif">636 µs</text>
<text x="230" y="672" text-anchor="end" font-size="12" fill="#24292f" font-family="-apple-system,BlinkMacSystemFont,'Segoe UI',Helvetica,Arial,sans-serif">Chevrotain</text>
<rect x="238" y="657" width="386" height="18" rx="3" fill="#eaeef2"/>
<rect x="238" y="657" width="266.0" height="18" rx="3" fill="#BA7517"/>
<text x="509.04777897950123" y="672" font-size="11" fill="#57606a" font-family="-apple-system,BlinkMacSystemFont,'Segoe UI',Helvetica,Arial,sans-serif">745 µs</text>
<text x="230" y="700" text-anchor="end" font-size="12" fill="#24292f" font-family="-apple-system,BlinkMacSystemFont,'Segoe UI',Helvetica,Arial,sans-serif">Parsimmon</text>
<rect x="238" y="685" width="386" height="18" rx="3" fill="#eaeef2"/>
<rect x="238" y="685" width="386.0" height="18" rx="3" fill="#E24B4A"/>
<text x="629" y="700" font-size="11" fill="#57606a" font-family="-apple-system,BlinkMacSystemFont,'Segoe UI',Helvetica,Arial,sans-serif">1.57 ms</text>
</svg>