<svg xmlns="http://www.w3.org/2000/svg" viewBox="0 0 720 694" width="720" height="694">
<rect width="720" height="694" fill="white" rx="6"/>
<rect x="20" y="20" width="11" height="11" rx="2" fill="#5B7FC7"/>
<text x="35" y="31" font-size="11.5" fill="#57606a" font-family="-apple-system,BlinkMacSystemFont,'Segoe UI',Helvetica,Arial,sans-serif">Lezer (parse only)</text>
<rect x="168" y="20" width="11" height="11" rx="2" fill="#8FA8D9"/>
<text x="183" y="31" font-size="11.5" fill="#57606a" font-family="-apple-system,BlinkMacSystemFont,'Segoe UI',Helvetica,Arial,sans-serif">Lezer (parse + walk)</text>
<rect x="330" y="20" width="11" height="11" rx="2" fill="#534AB7"/>
<text x="345" y="31" font-size="11.5" fill="#57606a" font-family="-apple-system,BlinkMacSystemFont,'Segoe UI',Helvetica,Arial,sans-serif">Parséman CST (macro build)</text>
<rect x="20" y="40" width="11" height="11" rx="2" fill="#C4BAFF"/>
<text x="35" y="51" font-size="11.5" fill="#57606a" font-family="-apple-system,BlinkMacSystemFont,'Segoe UI',Helvetica,Arial,sans-serif">Parséman CST (interpreter)</text>
<rect x="224" y="40" width="11" height="11" rx="2" fill="#BA7517"/>
<text x="239" y="51" font-size="11.5" fill="#57606a" font-family="-apple-system,BlinkMacSystemFont,'Segoe UI',Helvetica,Arial,sans-serif">Chevrotain CST</text>
<text x="700" y="31" font-size="10.5" fill="#8c959f" text-anchor="end" font-family="-apple-system,BlinkMacSystemFont,'Segoe UI',Helvetica,Arial,sans-serif">µs — shorter is faster</text>
<text x="20" y="86" font-size="10.5" font-weight="600" fill="#8c959f" letter-spacing="0.06em" font-family="-apple-system,BlinkMacSystemFont,'Segoe UI',Helvetica,Arial,sans-serif">JSON CST — SYNTAX TREE BUILDING</text>
<text x="20" y="101" font-size="12.5" fill="#57606a" font-family="-apple-system,BlinkMacSystemFont,'Segoe UI',Helvetica,Arial,sans-serif">initialization (macro build: zero runtime cost; others: no setup)</text>
<line x1="20" y1="129" x2="700" y2="129" stroke="#eaeef2" stroke-width="1"/>
<text x="20" y="145" font-size="12.5" fill="#57606a" font-family="-apple-system,BlinkMacSystemFont,'Segoe UI',Helvetica,Arial,sans-serif">warm parse — small  (52 bytes)</text>
<text x="230" y="180" text-anchor="end" font-size="12" fill="#24292f" font-family="-apple-system,BlinkMacSystemFont,'Segoe UI',Helvetica,Arial,sans-serif">Parséman CST (macro build)</text>
<rect x="238" y="165" width="386" height="18" rx="3" fill="#eaeef2"/>
<rect x="238" y="165" width="8.7" height="18" rx="3" fill="#534AB7"/>
<text x="251.70950634376715" y="180" font-size="11" fill="#57606a" font-family="-apple-system,BlinkMacSystemFont,'Segoe UI',Helvetica,Arial,sans-serif">0.97 µs</text>
<text x="230" y="208" text-anchor="end" font-size="12" fill="#24292f" font-family="-apple-system,BlinkMacSystemFont,'Segoe UI',Helvetica,Arial,sans-serif">Lezer (parse only)</text>
<rect x="238" y="193" width="386" height="18" rx="3" fill="#eaeef2"/>
<rect x="238" y="193" width="13.6" height="18" rx="3" fill="#5B7FC7"/>
<text x="256.5650715576046" y="208" font-size="11" fill="#57606a" font-family="-apple-system,BlinkMacSystemFont,'Segoe UI',Helvetica,Arial,sans-serif">2.34 µs</text>
<text x="230" y="236" text-anchor="end" font-size="12" fill="#24292f" font-family="-apple-system,BlinkMacSystemFont,'Segoe UI',Helvetica,Arial,sans-serif">Parséman CST (interpreter)</text>
<rect x="238" y="221" width="386" height="18" rx="3" fill="#eaeef2"/>
<rect x="238" y="221" width="14.9" height="18" rx="3" fill="#C4BAFF"/>
<text x="257.861133505239" y="236" font-size="11" fill="#57606a" font-family="-apple-system,BlinkMacSystemFont,'Segoe UI',Helvetica,Arial,sans-serif">2.81 µs</text>
<text x="230" y="264" text-anchor="end" font-size="12" fill="#24292f" font-family="-apple-system,BlinkMacSystemFont,'Segoe UI',Helvetica,Arial,sans-serif">Lezer (parse + walk)</text>
<rect x="238" y="249" width="386" height="18" rx="3" fill="#eaeef2"/>
<rect x="238" y="249" width="15.1" height="18" rx="3" fill="#8FA8D9"/>
<text x="258.08277253439604" y="264" font-size="11" fill="#57606a" font-family="-apple-system,BlinkMacSystemFont,'Segoe UI',Helvetica,Arial,sans-serif">2.90 µs</text>
<text x="230" y="292" text-anchor="end" font-size="12" fill="#24292f" font-family="-apple-system,BlinkMacSystemFont,'Segoe UI',Helvetica,Arial,sans-serif">Chevrotain CST</text>
<rect x="238" y="277" width="386" height="18" rx="3" fill="#eaeef2"/>
<rect x="238" y="277" width="24.0" height="18" rx="3" fill="#BA7517"/>
<text x="267.0310844479619" y="292" font-size="11" fill="#57606a" font-family="-apple-system,BlinkMacSystemFont,'Segoe UI',Helvetica,Arial,sans-serif">7.36 µs</text>
<text x="20" y="321" font-size="12.5" fill="#57606a" font-family="-apple-system,BlinkMacSystemFont,'Segoe UI',Helvetica,Arial,sans-serif">warm parse — medium  (1.8 kB)</text>
<text x="230" y="356" text-anchor="end" font-size="12" fill="#24292f" font-family="-apple-system,BlinkMacSystemFont,'Segoe UI',Helvetica,Arial,sans-serif">Parséman CST (macro build)</text>
<rect x="238" y="341" width="386" height="18" rx="3" fill="#eaeef2"/>
<rect x="238" y="341" width="47.7" height="18" rx="3" fill="#534AB7"/>
<text x="290.68441626219453" y="356" font-size="11" fill="#57606a" font-family="-apple-system,BlinkMacSystemFont,'Segoe UI',Helvetica,Arial,sans-serif">29.0 µs</text>
<text x="230" y="384" text-anchor="end" font-size="12" fill="#24292f" font-family="-apple-system,BlinkMacSystemFont,'Segoe UI',Helvetica,Arial,sans-serif">Lezer (parse only)</text>
<rect x="238" y="369" width="386" height="18" rx="3" fill="#eaeef2"/>
<rect x="238" y="369" width="79.3" height="18" rx="3" fill="#5B7FC7"/>
<text x="322.30120573523743" y="384" font-size="11" fill="#57606a" font-family="-apple-system,BlinkMacSystemFont,'Segoe UI',Helvetica,Arial,sans-serif">80.1 µs</text>
<text x="230" y="412" text-anchor="end" font-size="12" fill="#24292f" font-family="-apple-system,BlinkMacSystemFont,'Segoe UI',Helvetica,Arial,sans-serif">Lezer (parse + walk)</text>
<rect x="238" y="397" width="386" height="18" rx="3" fill="#eaeef2"/>
<rect x="238" y="397" width="83.9" height="18" rx="3" fill="#8FA8D9"/>
<text x="326.8807639113013" y="412" font-size="11" fill="#57606a" font-family="-apple-system,BlinkMacSystemFont,'Segoe UI',Helvetica,Arial,sans-serif">89.6 µs</text>
<text x="230" y="440" text-anchor="end" font-size="12" fill="#24292f" font-family="-apple-system,BlinkMacSystemFont,'Segoe UI',Helvetica,Arial,sans-serif">Parséman CST (interpreter)</text>
<rect x="238" y="425" width="386" height="18" rx="3" fill="#eaeef2"/>
<rect x="238" y="425" width="90.5" height="18" rx="3" fill="#C4BAFF"/>
<text x="333.52271447381423" y="440" font-size="11" fill="#57606a" font-family="-apple-system,BlinkMacSystemFont,'Segoe UI',Helvetica,Arial,sans-serif">104 µs</text>
<text x="230" y="468" text-anchor="end" font-size="12" fill="#24292f" font-family="-apple-system,BlinkMacSystemFont,'Segoe UI',Helvetica,Arial,sans-serif">Chevrotain CST</text>
<rect x="238" y="453" width="386" height="18" rx="3" fill="#eaeef2"/>
<rect x="238" y="453" width="137.3" height="18" rx="3" fill="#BA7517"/>
<text x="380.32124412460064" y="468" font-size="11" fill="#57606a" font-family="-apple-system,BlinkMacSystemFont,'Segoe UI',Helvetica,Arial,sans-serif">240 µs</text>
<text x="20" y="497" font-size="12.5" fill="#57606a" font-family="-apple-system,BlinkMacSystemFont,'Segoe UI',Helvetica,Arial,sans-serif">warm parse — large  (11.9 kB)</text>
<text x="230" y="532" text-anchor="end" font-size="12" fill="#24292f" font-family="-apple-system,BlinkMacSystemFont,'Segoe UI',Helvetica,Arial,sans-serif">Parséman CST (macro build)</text>
<rect x="238" y="517" width="386" height="18" rx="3" fill="#eaeef2"/>
<rect x="238" y="517" width="139.5" height="18" rx="3" fill="#534AB7"/>
<text x="382.4941026984084" y="532" font-size="11" fill="#57606a" font-family="-apple-system,BlinkMacSystemFont,'Segoe UI',Helvetica,Arial,sans-serif">248 µs</text>
<text x="230" y="560" text-anchor="end" font-size="12" fill="#24292f" font-family="-apple-system,BlinkMacSystemFont,'Segoe UI',Helvetica,Arial,sans-serif">Parséman CST (interpreter)</text>
<rect x="238" y="545" width="386" height="18" rx="3" fill="#eaeef2"/>
<rect x="238" y="545" width="222.8" height="18" rx="3" fill="#C4BAFF"/>
<text x="465.75220903239926" y="560" font-size="11" fill="#57606a" font-family="-apple-system,BlinkMacSystemFont,'Segoe UI',Helvetica,Arial,sans-serif">632 µs</text>
<text x="230" y="588" text-anchor="end" font-size="12" fill="#24292f" font-family="-apple-system,BlinkMacSystemFont,'Segoe UI',Helvetica,Arial,sans-serif">Lezer (parse only)</text>
<rect x="238" y="573" width="386" height="18" rx="3" fill="#eaeef2"/>
<rect x="238" y="573" width="227.1" height="18" rx="3" fill="#5B7FC7"/>
<text x="470.07577236721346" y="588" font-size="11" fill="#57606a" font-family="-apple-system,BlinkMacSystemFont,'Segoe UI',Helvetica,Arial,sans-serif">657 µs</text>
<text x="230" y="616" text-anchor="end" font-size="12" fill="#24292f" font-family="-apple-system,BlinkMacSystemFont,'Segoe UI',Helvetica,Arial,sans-serif">Lezer (parse + walk)</text>
<rect x="238" y="601" width="386" height="18" rx="3" fill="#eaeef2"/>
<rect x="238" y="601" width="240.3" height="18" rx="3" fill="#8FA8D9"/>
<text x="483.3136415818657" y="616" font-size="11" fill="#57606a" font-family="-apple-system,BlinkMacSystemFont,'Segoe UI',Helvetica,Arial,sans-serif">736 µs</text>
<text x="230" y="644" text-anchor="end" font-size="12" fill="#24292f" font-family="-apple-system,BlinkMacSystemFont,'Segoe UI',Helvetica,Arial,sans-serif">Chevrotain CST</text>
<rect x="238" y="629" width="386" height="18" rx="3" fill="#eaeef2"/>
<rect x="238" y="629" width="386.0" height="18" rx="3" fill="#BA7517"/>
<text x="629" y="644" font-size="11" fill="#57606a" font-family="-apple-system,BlinkMacSystemFont,'Segoe UI',Helvetica,Arial,sans-serif">1.90 ms</text>
</svg>