<svg xmlns="http://www.w3.org/2000/svg" viewBox="0 0 720 694" width="720" height="694">
<rect width="720" height="694" fill="white" rx="6"/>
<rect x="20" y="20" width="11" height="11" rx="2" fill="#5B7FC7"/>
<text x="35" y="31" font-size="11.5" fill="#57606a" font-family="-apple-system,BlinkMacSystemFont,'Segoe UI',Helvetica,Arial,sans-serif">Lezer (parse only)</text>
<rect x="168" y="20" width="11" height="11" rx="2" fill="#8FA8D9"/>
<text x="183" y="31" font-size="11.5" fill="#57606a" font-family="-apple-system,BlinkMacSystemFont,'Segoe UI',Helvetica,Arial,sans-serif">Lezer (parse + walk)</text>
<rect x="330" y="20" width="11" height="11" rx="2" fill="#534AB7"/>
<text x="345" y="31" font-size="11.5" fill="#57606a" font-family="-apple-system,BlinkMacSystemFont,'Segoe UI',Helvetica,Arial,sans-serif">Parséman CST (macro build)</text>
<rect x="20" y="40" width="11" height="11" rx="2" fill="#C4BAFF"/>
<text x="35" y="51" font-size="11.5" fill="#57606a" font-family="-apple-system,BlinkMacSystemFont,'Segoe UI',Helvetica,Arial,sans-serif">Parséman CST (interpreter)</text>
<rect x="224" y="40" width="11" height="11" rx="2" fill="#BA7517"/>
<text x="239" y="51" font-size="11.5" fill="#57606a" font-family="-apple-system,BlinkMacSystemFont,'Segoe UI',Helvetica,Arial,sans-serif">Chevrotain CST</text>
<text x="700" y="31" font-size="10.5" fill="#8c959f" text-anchor="end" font-family="-apple-system,BlinkMacSystemFont,'Segoe UI',Helvetica,Arial,sans-serif">µs — shorter is faster</text>
<text x="20" y="86" font-size="10.5" font-weight="600" fill="#8c959f" letter-spacing="0.06em" font-family="-apple-system,BlinkMacSystemFont,'Segoe UI',Helvetica,Arial,sans-serif">JSON CST — SYNTAX TREE BUILDING</text>
<text x="20" y="101" font-size="12.5" fill="#57606a" font-family="-apple-system,BlinkMacSystemFont,'Segoe UI',Helvetica,Arial,sans-serif">initialization (macro build: zero runtime cost; others: no setup)</text>
<line x1="20" y1="129" x2="700" y2="129" stroke="#eaeef2" stroke-width="1"/>
<text x="20" y="145" font-size="12.5" fill="#57606a" font-family="-apple-system,BlinkMacSystemFont,'Segoe UI',Helvetica,Arial,sans-serif">warm parse — small  (52 bytes)</text>
<text x="230" y="180" text-anchor="end" font-size="12" fill="#24292f" font-family="-apple-system,BlinkMacSystemFont,'Segoe UI',Helvetica,Arial,sans-serif">Parséman CST (macro build)</text>
<rect x="238" y="165" width="386" height="18" rx="3" fill="#eaeef2"/>
<rect x="238" y="165" width="7.3" height="18" rx="3" fill="#534AB7"/>
<text x="250.2824950285899" y="180" font-size="11" fill="#57606a" font-family="-apple-system,BlinkMacSystemFont,'Segoe UI',Helvetica,Arial,sans-serif">0.74 µs</text>
<text x="230" y="208" text-anchor="end" font-size="12" fill="#24292f" font-family="-apple-system,BlinkMacSystemFont,'Segoe UI',Helvetica,Arial,sans-serif">Lezer (parse only)</text>
<rect x="238" y="193" width="386" height="18" rx="3" fill="#eaeef2"/>
<rect x="238" y="193" width="13.1" height="18" rx="3" fill="#5B7FC7"/>
<text x="256.1345001804335" y="208" font-size="11" fill="#57606a" font-family="-apple-system,BlinkMacSystemFont,'Segoe UI',Helvetica,Arial,sans-serif">2.42 µs</text>
<text x="230" y="236" text-anchor="end" font-size="12" fill="#24292f" font-family="-apple-system,BlinkMacSystemFont,'Segoe UI',Helvetica,Arial,sans-serif">Parséman CST (interpreter)</text>
<rect x="238" y="221" width="386" height="18" rx="3" fill="#eaeef2"/>
<rect x="238" y="221" width="13.9" height="18" rx="3" fill="#C4BAFF"/>
<text x="256.86136488331573" y="236" font-size="11" fill="#57606a" font-family="-apple-system,BlinkMacSystemFont,'Segoe UI',Helvetica,Arial,sans-serif">2.70 µs</text>
<text x="230" y="264" text-anchor="end" font-size="12" fill="#24292f" font-family="-apple-system,BlinkMacSystemFont,'Segoe UI',Helvetica,Arial,sans-serif">Lezer (parse + walk)</text>
<rect x="238" y="249" width="386" height="18" rx="3" fill="#eaeef2"/>
<rect x="238" y="249" width="14.0" height="18" rx="3" fill="#8FA8D9"/>
<text x="257.01427412484156" y="264" font-size="11" fill="#57606a" font-family="-apple-system,BlinkMacSystemFont,'Segoe UI',Helvetica,Arial,sans-serif">2.76 µs</text>
<text x="230" y="292" text-anchor="end" font-size="12" fill="#24292f" font-family="-apple-system,BlinkMacSystemFont,'Segoe UI',Helvetica,Arial,sans-serif">Chevrotain CST</text>
<rect x="238" y="277" width="386" height="18" rx="3" fill="#eaeef2"/>
<rect x="238" y="277" width="25.2" height="18" rx="3" fill="#BA7517"/>
<text x="268.1989770032039" y="292" font-size="11" fill="#57606a" font-family="-apple-system,BlinkMacSystemFont,'Segoe UI',Helvetica,Arial,sans-serif">8.92 µs</text>
<text x="20" y="321" font-size="12.5" fill="#57606a" font-family="-apple-system,BlinkMacSystemFont,'Segoe UI',Helvetica,Arial,sans-serif">warm parse — medium  (1.8 kB)</text>
<text x="230" y="356" text-anchor="end" font-size="12" fill="#24292f" font-family="-apple-system,BlinkMacSystemFont,'Segoe UI',Helvetica,Arial,sans-serif">Parséman CST (macro build)</text>
<rect x="238" y="341" width="386" height="18" rx="3" fill="#eaeef2"/>
<rect x="238" y="341" width="39.0" height="18" rx="3" fill="#534AB7"/>
<text x="282.0418325683587" y="356" font-size="11" fill="#57606a" font-family="-apple-system,BlinkMacSystemFont,'Segoe UI',Helvetica,Arial,sans-serif">21.4 µs</text>
<text x="230" y="384" text-anchor="end" font-size="12" fill="#24292f" font-family="-apple-system,BlinkMacSystemFont,'Segoe UI',Helvetica,Arial,sans-serif">Lezer (parse only)</text>
<rect x="238" y="369" width="386" height="18" rx="3" fill="#eaeef2"/>
<rect x="238" y="369" width="72.8" height="18" rx="3" fill="#5B7FC7"/>
<text x="315.8198596299171" y="384" font-size="11" fill="#57606a" font-family="-apple-system,BlinkMacSystemFont,'Segoe UI',Helvetica,Arial,sans-serif">74.5 µs</text>
<text x="230" y="412" text-anchor="end" font-size="12" fill="#24292f" font-family="-apple-system,BlinkMacSystemFont,'Segoe UI',Helvetica,Arial,sans-serif">Lezer (parse + walk)</text>
<rect x="238" y="397" width="386" height="18" rx="3" fill="#eaeef2"/>
<rect x="238" y="397" width="76.0" height="18" rx="3" fill="#8FA8D9"/>
<text x="318.9945396462859" y="412" font-size="11" fill="#57606a" font-family="-apple-system,BlinkMacSystemFont,'Segoe UI',Helvetica,Arial,sans-serif">81.1 µs</text>
<text x="230" y="440" text-anchor="end" font-size="12" fill="#24292f" font-family="-apple-system,BlinkMacSystemFont,'Segoe UI',Helvetica,Arial,sans-serif">Parséman CST (interpreter)</text>
<rect x="238" y="425" width="386" height="18" rx="3" fill="#eaeef2"/>
<rect x="238" y="425" width="81.6" height="18" rx="3" fill="#C4BAFF"/>
<text x="324.6375879304808" y="440" font-size="11" fill="#57606a" font-family="-apple-system,BlinkMacSystemFont,'Segoe UI',Helvetica,Arial,sans-serif">93.6 µs</text>
<text x="230" y="468" text-anchor="end" font-size="12" fill="#24292f" font-family="-apple-system,BlinkMacSystemFont,'Segoe UI',Helvetica,Arial,sans-serif">Chevrotain CST</text>
<rect x="238" y="453" width="386" height="18" rx="3" fill="#eaeef2"/>
<rect x="238" y="453" width="138.7" height="18" rx="3" fill="#BA7517"/>
<text x="381.72710787827833" y="468" font-size="11" fill="#57606a" font-family="-apple-system,BlinkMacSystemFont,'Segoe UI',Helvetica,Arial,sans-serif">270 µs</text>
<text x="20" y="497" font-size="12.5" fill="#57606a" font-family="-apple-system,BlinkMacSystemFont,'Segoe UI',Helvetica,Arial,sans-serif">warm parse — large  (11.9 kB)</text>
<text x="230" y="532" text-anchor="end" font-size="12" fill="#24292f" font-family="-apple-system,BlinkMacSystemFont,'Segoe UI',Helvetica,Arial,sans-serif">Parséman CST (macro build)</text>
<rect x="238" y="517" width="386" height="18" rx="3" fill="#eaeef2"/>
<rect x="238" y="517" width="110.7" height="18" rx="3" fill="#534AB7"/>
<text x="353.69432672833017" y="532" font-size="11" fill="#57606a" font-family="-apple-system,BlinkMacSystemFont,'Segoe UI',Helvetica,Arial,sans-serif">172 µs</text>
<text x="230" y="560" text-anchor="end" font-size="12" fill="#24292f" font-family="-apple-system,BlinkMacSystemFont,'Segoe UI',Helvetica,Arial,sans-serif">Parséman CST (interpreter)</text>
<rect x="238" y="545" width="386" height="18" rx="3" fill="#eaeef2"/>
<rect x="238" y="545" width="207.5" height="18" rx="3" fill="#C4BAFF"/>
<text x="450.4704870946695" y="560" font-size="11" fill="#57606a" font-family="-apple-system,BlinkMacSystemFont,'Segoe UI',Helvetica,Arial,sans-serif">604 µs</text>
<text x="230" y="588" text-anchor="end" font-size="12" fill="#24292f" font-family="-apple-system,BlinkMacSystemFont,'Segoe UI',Helvetica,Arial,sans-serif">Lezer (parse only)</text>
<rect x="238" y="573" width="386" height="18" rx="3" fill="#eaeef2"/>
<rect x="238" y="573" width="210.1" height="18" rx="3" fill="#5B7FC7"/>
<text x="453.0551483683164" y="588" font-size="11" fill="#57606a" font-family="-apple-system,BlinkMacSystemFont,'Segoe UI',Helvetica,Arial,sans-serif">619 µs</text>
<text x="230" y="616" text-anchor="end" font-size="12" fill="#24292f" font-family="-apple-system,BlinkMacSystemFont,'Segoe UI',Helvetica,Arial,sans-serif">Lezer (parse + walk)</text>
<rect x="238" y="601" width="386" height="18" rx="3" fill="#eaeef2"/>
<rect x="238" y="601" width="227.2" height="18" rx="3" fill="#8FA8D9"/>
<text x="470.22422806428915" y="616" font-size="11" fill="#57606a" font-family="-apple-system,BlinkMacSystemFont,'Segoe UI',Helvetica,Arial,sans-serif">725 µs</text>
<text x="230" y="644" text-anchor="end" font-size="12" fill="#24292f" font-family="-apple-system,BlinkMacSystemFont,'Segoe UI',Helvetica,Arial,sans-serif">Chevrotain CST</text>
<rect x="238" y="629" width="386" height="18" rx="3" fill="#eaeef2"/>
<rect x="238" y="629" width="386.0" height="18" rx="3" fill="#BA7517"/>
<text x="629" y="644" font-size="11" fill="#57606a" font-family="-apple-system,BlinkMacSystemFont,'Segoe UI',Helvetica,Arial,sans-serif">2.09 ms</text>
</svg>