<svg xmlns="http://www.w3.org/2000/svg" viewBox="0 0 720 636" width="720" height="636">
<rect width="720" height="636" fill="white" rx="6"/>
<rect x="20" y="20" width="11" height="11" rx="2" fill="#534AB7"/>
<text x="35" y="31" font-size="11.5" fill="#57606a" font-family="-apple-system,BlinkMacSystemFont,'Segoe UI',Helvetica,Arial,sans-serif">Parséman (macro build)</text>
<rect x="196" y="20" width="11" height="11" rx="2" fill="#9B8FEF"/>
<text x="211" y="31" font-size="11.5" fill="#57606a" font-family="-apple-system,BlinkMacSystemFont,'Segoe UI',Helvetica,Arial,sans-serif">Parséman (.compile())</text>
<rect x="365" y="20" width="11" height="11" rx="2" fill="#C4BAFF"/>
<text x="380" y="31" font-size="11.5" fill="#57606a" font-family="-apple-system,BlinkMacSystemFont,'Segoe UI',Helvetica,Arial,sans-serif">Parséman (interpreter)</text>
<rect x="20" y="40" width="11" height="11" rx="2" fill="#1D9E75"/>
<text x="35" y="51" font-size="11.5" fill="#57606a" font-family="-apple-system,BlinkMacSystemFont,'Segoe UI',Helvetica,Arial,sans-serif">Peggy</text>
<rect x="77" y="40" width="11" height="11" rx="2" fill="#E24B4A"/>
<text x="92" y="51" font-size="11.5" fill="#57606a" font-family="-apple-system,BlinkMacSystemFont,'Segoe UI',Helvetica,Arial,sans-serif">Parsimmon</text>
<rect x="162" y="40" width="11" height="11" rx="2" fill="#BA7517"/>
<text x="177" y="51" font-size="11.5" fill="#57606a" font-family="-apple-system,BlinkMacSystemFont,'Segoe UI',Helvetica,Arial,sans-serif">Chevrotain</text>
<rect x="254" y="40" width="11" height="11" rx="2" fill="#3788C2"/>
<text x="269" y="51" font-size="11.5" fill="#57606a" font-family="-apple-system,BlinkMacSystemFont,'Segoe UI',Helvetica,Arial,sans-serif">Nearley</text>
<text x="700" y="31" font-size="10.5" fill="#8c959f" text-anchor="end" font-family="-apple-system,BlinkMacSystemFont,'Segoe UI',Helvetica,Arial,sans-serif">µs — shorter is faster</text>
<text x="20" y="86" font-size="10.5" font-weight="600" fill="#8c959f" letter-spacing="0.06em" font-family="-apple-system,BlinkMacSystemFont,'Segoe UI',Helvetica,Arial,sans-serif">CSV PARSING</text>
<text x="20" y="101" font-size="12.5" fill="#57606a" font-family="-apple-system,BlinkMacSystemFont,'Segoe UI',Helvetica,Arial,sans-serif">initialization (one-time; others: no setup cost)</text>
<text x="230" y="136" text-anchor="end" font-size="12" fill="#24292f" font-family="-apple-system,BlinkMacSystemFont,'Segoe UI',Helvetica,Arial,sans-serif">Parséman (.compile())</text>
<rect x="238" y="121" width="386" height="18" rx="3" fill="#f0f0f5"/>
<rect x="238" y="121" width="66.7" height="18" rx="3" fill="#9B8FEF"/>
<text x="309.71948145480735" y="136" font-size="11" fill="#57606a" font-family="-apple-system,BlinkMacSystemFont,'Segoe UI',Helvetica,Arial,sans-serif">144 µs</text>
<text x="230" y="164" text-anchor="end" font-size="12" fill="#24292f" font-family="-apple-system,BlinkMacSystemFont,'Segoe UI',Helvetica,Arial,sans-serif">Chevrotain</text>
<rect x="238" y="149" width="386" height="18" rx="3" fill="#f0f0f5"/>
<rect x="238" y="149" width="386.0" height="18" rx="3" fill="#BA7517"/>
<text x="629" y="164" font-size="11" fill="#57606a" font-family="-apple-system,BlinkMacSystemFont,'Segoe UI',Helvetica,Arial,sans-serif">833 µs</text>
<line x1="20" y1="185" x2="700" y2="185" stroke="#eaeef2" stroke-width="1"/>
<text x="20" y="201" font-size="12.5" fill="#57606a" font-family="-apple-system,BlinkMacSystemFont,'Segoe UI',Helvetica,Arial,sans-serif">warm parse — small  (54 bytes, 4 rows)</text>
<text x="230" y="236" text-anchor="end" font-size="12" fill="#24292f" font-family="-apple-system,BlinkMacSystemFont,'Segoe UI',Helvetica,Arial,sans-serif">Parséman (macro build)</text>
<rect x="238" y="221" width="386" height="18" rx="3" fill="#eaeef2"/>
<rect x="238" y="221" width="6.2" height="18" rx="3" fill="#534AB7"/>
<text x="249.2189419439471" y="236" font-size="11" fill="#57606a" font-family="-apple-system,BlinkMacSystemFont,'Segoe UI',Helvetica,Arial,sans-serif">0.84 µs</text>
<text x="230" y="264" text-anchor="end" font-size="12" fill="#24292f" font-family="-apple-system,BlinkMacSystemFont,'Segoe UI',Helvetica,Arial,sans-serif">Parséman (interpreter)</text>
<rect x="238" y="249" width="386" height="18" rx="3" fill="#eaeef2"/>
<rect x="238" y="249" width="9.8" height="18" rx="3" fill="#C4BAFF"/>
<text x="252.77051155784577" y="264" font-size="11" fill="#57606a" font-family="-apple-system,BlinkMacSystemFont,'Segoe UI',Helvetica,Arial,sans-serif">2.06 µs</text>
<text x="230" y="292" text-anchor="end" font-size="12" fill="#24292f" font-family="-apple-system,BlinkMacSystemFont,'Segoe UI',Helvetica,Arial,sans-serif">Peggy</text>
<rect x="238" y="277" width="386" height="18" rx="3" fill="#eaeef2"/>
<rect x="238" y="277" width="10.0" height="18" rx="3" fill="#1D9E75"/>
<text x="253.01598687533718" y="292" font-size="11" fill="#57606a" font-family="-apple-system,BlinkMacSystemFont,'Segoe UI',Helvetica,Arial,sans-serif">2.17 µs</text>
<text x="230" y="320" text-anchor="end" font-size="12" fill="#24292f" font-family="-apple-system,BlinkMacSystemFont,'Segoe UI',Helvetica,Arial,sans-serif">Parsimmon</text>
<rect x="238" y="305" width="386" height="18" rx="3" fill="#eaeef2"/>
<rect x="238" y="305" width="12.9" height="18" rx="3" fill="#E24B4A"/>
<text x="255.94801063347984" y="320" font-size="11" fill="#57606a" font-family="-apple-system,BlinkMacSystemFont,'Segoe UI',Helvetica,Arial,sans-serif">3.62 µs</text>
<text x="230" y="348" text-anchor="end" font-size="12" fill="#24292f" font-family="-apple-system,BlinkMacSystemFont,'Segoe UI',Helvetica,Arial,sans-serif">Chevrotain</text>
<rect x="238" y="333" width="386" height="18" rx="3" fill="#eaeef2"/>
<rect x="238" y="333" width="15.9" height="18" rx="3" fill="#BA7517"/>
<text x="258.8691203605728" y="348" font-size="11" fill="#57606a" font-family="-apple-system,BlinkMacSystemFont,'Segoe UI',Helvetica,Arial,sans-serif">5.44 µs</text>
<text x="230" y="376" text-anchor="end" font-size="12" fill="#24292f" font-family="-apple-system,BlinkMacSystemFont,'Segoe UI',Helvetica,Arial,sans-serif">Nearley</text>
<rect x="238" y="361" width="386" height="18" rx="3" fill="#eaeef2"/>
<rect x="238" y="361" width="19.0" height="18" rx="3" fill="#3788C2"/>
<text x="262.0011532387099" y="376" font-size="11" fill="#57606a" font-family="-apple-system,BlinkMacSystemFont,'Segoe UI',Helvetica,Arial,sans-serif">7.81 µs</text>
<text x="20" y="405" font-size="12.5" fill="#57606a" font-family="-apple-system,BlinkMacSystemFont,'Segoe UI',Helvetica,Arial,sans-serif">warm parse — large  (14.5 kB, 500 rows)</text>
<text x="230" y="440" text-anchor="end" font-size="12" fill="#24292f" font-family="-apple-system,BlinkMacSystemFont,'Segoe UI',Helvetica,Arial,sans-serif">Parséman (macro build)</text>
<rect x="238" y="425" width="386" height="18" rx="3" fill="#eaeef2"/>
<rect x="238" y="425" width="57.2" height="18" rx="3" fill="#534AB7"/>
<text x="300.1775687966392" y="440" font-size="11" fill="#57606a" font-family="-apple-system,BlinkMacSystemFont,'Segoe UI',Helvetica,Arial,sans-serif">70.7 µs</text>
<text x="230" y="468" text-anchor="end" font-size="12" fill="#24292f" font-family="-apple-system,BlinkMacSystemFont,'Segoe UI',Helvetica,Arial,sans-serif">Parséman (interpreter)</text>
<rect x="238" y="453" width="386" height="18" rx="3" fill="#eaeef2"/>
<rect x="238" y="453" width="132.4" height="18" rx="3" fill="#C4BAFF"/>
<text x="375.41615757538295" y="468" font-size="11" fill="#57606a" font-family="-apple-system,BlinkMacSystemFont,'Segoe UI',Helvetica,Arial,sans-serif">379 µs</text>
<text x="230" y="496" text-anchor="end" font-size="12" fill="#24292f" font-family="-apple-system,BlinkMacSystemFont,'Segoe UI',Helvetica,Arial,sans-serif">Peggy</text>
<rect x="238" y="481" width="386" height="18" rx="3" fill="#eaeef2"/>
<rect x="238" y="481" width="156.6" height="18" rx="3" fill="#1D9E75"/>
<text x="399.5537813268203" y="496" font-size="11" fill="#57606a" font-family="-apple-system,BlinkMacSystemFont,'Segoe UI',Helvetica,Arial,sans-serif">530 µs</text>
<text x="230" y="524" text-anchor="end" font-size="12" fill="#24292f" font-family="-apple-system,BlinkMacSystemFont,'Segoe UI',Helvetica,Arial,sans-serif">Parsimmon</text>
<rect x="238" y="509" width="386" height="18" rx="3" fill="#eaeef2"/>
<rect x="238" y="509" width="157.6" height="18" rx="3" fill="#E24B4A"/>
<text x="400.64613131152703" y="524" font-size="11" fill="#57606a" font-family="-apple-system,BlinkMacSystemFont,'Segoe UI',Helvetica,Arial,sans-serif">537 µs</text>
<text x="230" y="552" text-anchor="end" font-size="12" fill="#24292f" font-family="-apple-system,BlinkMacSystemFont,'Segoe UI',Helvetica,Arial,sans-serif">Chevrotain</text>
<rect x="238" y="537" width="386" height="18" rx="3" fill="#eaeef2"/>
<rect x="238" y="537" width="250.6" height="18" rx="3" fill="#BA7517"/>
<text x="493.6304756249356" y="552" font-size="11" fill="#57606a" font-family="-apple-system,BlinkMacSystemFont,'Segoe UI',Helvetica,Arial,sans-serif">1.36 ms</text>
<text x="230" y="580" text-anchor="end" font-size="12" fill="#24292f" font-family="-apple-system,BlinkMacSystemFont,'Segoe UI',Helvetica,Arial,sans-serif">Nearley</text>
<rect x="238" y="565" width="386" height="18" rx="3" fill="#eaeef2"/>
<rect x="238" y="565" width="386.0" height="18" rx="3" fill="#3788C2"/>
<text x="629" y="580" font-size="11" fill="#57606a" font-family="-apple-system,BlinkMacSystemFont,'Segoe UI',Helvetica,Arial,sans-serif">3.22 ms</text>
</svg>